<svg id="process_docs" data-name="process docs" xmlns="http://www.w3.org/2000/svg" viewBox="0 0 306 210.7"><defs><style>.cls-1,.cls-3,.cls-4{fill:#007dba;}.cls-2{fill:#fff;stroke:#fff;stroke-miterlimit:10;}.cls-3{opacity:0.23;isolation:isolate;}.cls-4{opacity:0.82;}</style></defs><title>process-docs</title><rect class="cls-1" width="306" height="210.7"/><rect class="cls-2" x="35.13" y="67.46" width="53.94" height="73.33" rx="2.63"/><rect class="cls-3" x="40.19" y="85.94" width="43.83" height="23.27" rx="4.37"/><rect class="cls-4" x="49.34" y="118.7" width="25.53" height="3.61" rx="1.03"/><rect class="cls-2" x="126.33" y="67.46" width="53.94" height="73.33" rx="2.63"/><rect class="cls-3" x="140.52" y="78.91" width="25.85" height="13.72" rx="0.89"/><rect class="cls-4" x="136.74" y="105.49" width="33" height="3.61" rx="1.03"/><rect class="cls-4" x="136.74" y="112.23" width="33" height="3.61" rx="1.03"/><rect class="cls-2" x="217.12" y="15.36" width="53.94" height="73.33" rx="2.63"/><rect class="cls-3" x="226.53" y="26.74" width="35.12" height="16.39" rx="0.89"/><rect class="cls-3" x="226.53" y="50.56" width="35.12" height="16.39" rx="0.89"/><rect class="cls-4" x="223.72" y="80.16" width="11.52" height="5.06" rx="2.34"/><rect class="cls-4" x="238.33" y="80.16" width="11.52" height="5.06" rx="2.34"/><rect class="cls-4" x="252.94" y="80.16" width="11.52" height="5.06" rx="2.34"/><rect class="cls-2" x="216.99" y="119.55" width="53.94" height="73.33" rx="2.63"/><rect class="cls-3" x="221.15" y="128.13" width="16.12" height="16.39" rx="0.89"/><rect class="cls-4" x="227.47" y="154.5" width="33" height="3.61" rx="1.03"/><rect class="cls-4" x="227.47" y="161.8" width="33" height="3.61" rx="1.03"/><rect class="cls-4" x="227.47" y="169.11" width="33" height="3.61" rx="1.03"/><path class="cls-2" d="M120.11,101.68l-.82.39-6.69,3.22-.62.29a.32.32,0,0,1-.43-.16v0a.24.24,0,0,1,0-.12v-1.9a.33.33,0,0,0-.33-.33H95a.33.33,0,0,1-.33-.32V100a.33.33,0,0,1,.33-.32h16.28a.33.33,0,0,0,.33-.33v-2a.24.24,0,0,1,0-.12.33.33,0,0,1,.43-.18h0l.61.29,6.68,3.25.82.4a.33.33,0,0,1,.16.43A.35.35,0,0,1,120.11,101.68Z" transform="translate(0 0.7)"/><path class="cls-2" d="M210.64,85.18l-.54.74-4.38,6-.39.53a.33.33,0,0,1-.47.06h0a.39.39,0,0,1-.08-.1l-.89-1.67a.33.33,0,0,0-.45-.14l-14.37,7.65a.33.33,0,0,1-.44-.14h0l-1.26-2.38a.33.33,0,0,1,.14-.44h0l14.37-7.64a.32.32,0,0,0,.14-.43h0l-.91-1.71a.27.27,0,0,1,0-.12.31.31,0,0,1,.27-.36H202l7.41-.27.92,0a.32.32,0,0,1,.33.32A.34.34,0,0,1,210.64,85.18Z" transform="translate(0 0.7)"/><path class="cls-2" d="M210.59,116.53h-9a.32.32,0,0,1-.33-.32v0a.2.2,0,0,1,0-.11l.82-1.72a.33.33,0,0,0-.15-.44h0l-14.68-7a.33.33,0,0,1-.15-.44l1.16-2.42a.32.32,0,0,1,.42-.16h0l14.67,7a.33.33,0,0,0,.44-.15l.85-1.76a.32.32,0,0,1,.42-.16.29.29,0,0,1,.12.1l.41.51,4.61,5.82.56.72a.33.33,0,0,1,0,.46A.34.34,0,0,1,210.59,116.53Z" transform="translate(0 0.7)"/></svg>