<svg xmlns="http://www.w3.org/2000/svg" viewBox="0 0 34.51 41.16"><defs><style>.cls-1{fill:#c3d1d6;}</style></defs><g id="Layer_2" data-name="Layer 2"><g id="Layer_1-2" data-name="Layer 1"><path class="cls-1" d="M.64,0A.64.64,0,0,0,0,.65V40.52a.64.64,0,0,0,.64.64H33.87a.64.64,0,0,0,.64-.64V.65A.64.64,0,0,0,33.87,0C22.78,0,11.7,0,.64,0Zm.65,1.28h2v9.23a.65.65,0,0,0,.52.74h0A.63.63,0,0,0,4.48,11L7.29,8.21l2.87,2.86a.64.64,0,0,0,1.09-.45V1.3h22V39.88H1.29V1.3Zm3.32,0H10V9.07L7.74,6.84a.65.65,0,0,0-.91,0L4.61,9.06ZM4.38,15.12a.64.64,0,1,0,0,1.28H30.13a.64.64,0,1,0,0-1.28Zm0,3.21a.65.65,0,1,0,0,1.29H30.13a.65.65,0,1,0,0-1.29Zm0,3.22a.65.65,0,1,0,0,1.29H30.13a.65.65,0,1,0,0-1.29Zm0,3.22a.65.65,0,1,0,0,1.29H30.13a.65.65,0,1,0,0-1.29Zm0,3.22a.65.65,0,1,0,0,1.29H30.13a.65.65,0,1,0,0-1.29Zm0,3.76a.64.64,0,1,0,0,1.28H17.26a.64.64,0,1,0,0-1.28Zm20.77,3.14a.65.65,0,1,0,0,1.29h5a.65.65,0,1,0,0-1.29Z"/></g></g></svg>