<?xml version="1.0" encoding="utf-8"?>
<!-- Generator: Adobe Illustrator 20.1.0, SVG Export Plug-In . SVG Version: 6.00 Build 0)  -->
<svg version="1.1" id="Layer_1" xmlns="http://www.w3.org/2000/svg" xmlns:xlink="http://www.w3.org/1999/xlink" x="0px" y="0px"
	 viewBox="0 0 37.1 37.1" style="enable-background:new 0 0 37.1 37.1;" xml:space="preserve">
<style type="text/css">
	.st0{fill:none;stroke:#C3D1D6;stroke-width:1.25;stroke-linecap:round;stroke-linejoin:round;stroke-miterlimit:10;}
</style>
<g>
	<g>
		<path class="st0" d="M12.9,14.2c0-1,0.2-1.9,0.7-2.7c-0.9-0.8-1.9-1.3-3.1-1.6c1.3-0.6,2.2-2,2.2-3.5c0-2.2-1.8-3.9-3.9-3.9
			s-4,1.7-4,3.9C4.8,8,5.7,9.3,7,9.9c-3.2,0.7-5.5,3.5-5.6,6.9c1.7,2.1,4.3,3.4,7.3,3.4c2.2,0,4.2-0.7,5.8-2
			C13.5,17.2,12.9,15.8,12.9,14.2z"/>
		<path class="st0" d="M22.6,18.2c1.6,1.3,3.6,2,5.8,2c2.9,0,5.6-1.3,7.3-3.4c-0.1-3.3-2.4-6.1-5.6-6.9c1.3-0.6,2.2-2,2.2-3.5
			c0-2.2-1.8-3.9-3.9-3.9c-2.2,0-3.9,1.8-3.9,3.9c0,1.6,0.9,2.9,2.2,3.5c-1.2,0.3-2.2,0.8-3.1,1.6c0.4,0.8,0.7,1.7,0.7,2.7
			C24.3,15.8,23.6,17.2,22.6,18.2z"/>
	</g>
	<path class="st0" d="M20.6,19.5c2.1-0.8,3.7-2.9,3.7-5.3c0-3.2-2.6-5.7-5.7-5.7c-3.2,0-5.7,2.6-5.7,5.7c0,2.4,1.5,4.5,3.7,5.3
		c-4.8,0.9-8.4,5.1-8.5,10.1c2.5,3,6.3,5,10.6,5s8.1-1.9,10.6-5C29,24.7,25.4,20.5,20.6,19.5z"/>
</g>
</svg>
