<?xml version="1.0" encoding="utf-8"?>
<!-- Generator: Adobe Illustrator 20.1.0, SVG Export Plug-In . SVG Version: 6.00 Build 0)  -->
<svg version="1.1" id="Layer_1" xmlns="http://www.w3.org/2000/svg" xmlns:xlink="http://www.w3.org/1999/xlink" x="0px" y="0px"
	 viewBox="0 0 37.1 37.1" style="enable-background:new 0 0 37.1 37.1;" xml:space="preserve">
<style type="text/css">
	.st0{fill:none;stroke:#C3D1D6;stroke-width:1.25;stroke-linecap:round;stroke-linejoin:round;stroke-miterlimit:10;}
</style>
<g>
	<g>
		<line class="st0" x1="9.1" y1="8.4" x2="17.1" y2="8.4"/>
		<polyline class="st0" points="16.1,14.4 16.1,16.5 13.1,14.4 10.1,16.4 10.1,8.4 16.1,8.4 16.1,14.4 		"/>
	</g>
	<g>
		<path class="st0" d="M34.1,33.4h-25c-3,0-4-1.9-4-4l0,0c0-2.1,1-4,4-4h25"/>
		<g>
			<path class="st0" d="M33.1,25.4c-0.4,1.3-0.5,2.5-0.5,3.9s0.2,2.8,0.6,4.1"/>
		</g>
	</g>
	<g>
		<path class="st0" d="M3.1,22.4h25c3,0,4-1.9,4-4l0,0c0-2.1-1-4-4-4h-12"/>
		<line class="st0" x1="3.1" y1="14.4" x2="10.1" y2="14.4"/>
		<g>
			<path class="st0" d="M4.1,22.4c0.4-1.3,0.5-2.5,0.5-3.9s-0.2-2.7-0.6-4"/>
		</g>
	</g>
	<g>
		<path class="st0" d="M10.1,11.4h-1c-3,0-4-1.9-4-4l0,0c0-2.1,1-4,4-4h25"/>
		<line class="st0" x1="34.1" y1="11.4" x2="16.1" y2="11.4"/>
		<g>
			<path class="st0" d="M33.1,3.4c-0.4,1.3-0.5,2.5-0.5,3.9s0.2,2.8,0.6,4.1"/>
		</g>
	</g>
</g>
</svg>
