<?xml version="1.0" encoding="utf-8"?>
<!-- Generator: Adobe Illustrator 24.1.0, SVG Export Plug-In . SVG Version: 6.00 Build 0)  -->
<svg version="1.1" xmlns="http://www.w3.org/2000/svg" xmlns:xlink="http://www.w3.org/1999/xlink" x="0px" y="0px"
	 viewBox="0 0 306 210" style="enable-background:new 0 0 306 210;" xml:space="preserve">
<style type="text/css">
	.st0{display:none;}
	.st1{display:inline;fill:#F2F2F2;}
	.st2{display:inline;fill:#D0CDE1;}
	.st3{display:inline;fill:#3F3D56;}
	.st4{display:inline;fill:#6C63FF;}
	.st5{display:inline;fill:#007DBA;}
	.st6{display:inline;fill:#FFFFFF;}
	.st7{display:inline;opacity:0.54;fill:#FFFFFF;}
	.st8{display:inline;fill:#575A89;}
	.st9{display:inline;opacity:0.2;fill:none;stroke:#5A5773;stroke-miterlimit:10;enable-background:new    ;}
	.st10{display:inline;opacity:0.2;fill:none;stroke:#5A5773;stroke-miterlimit:10;stroke-dasharray:12;enable-background:new    ;}
	.st11{display:inline;opacity:0.2;fill:#6C63FF;enable-background:new    ;}
	.st12{display:inline;opacity:0.5;fill:#6C63FF;enable-background:new    ;}
	.st13{display:inline;fill:#FFFFFF;stroke:#FFFFFF;stroke-miterlimit:10;}
	.st14{display:inline;opacity:0.23;fill:#007DBA;enable-background:new    ;}
	.st15{display:inline;opacity:0.82;fill:#007DBA;}
	.st16{display:inline;fill:#FBBEBE;}
	.st17{display:inline;opacity:0.1;enable-background:new    ;}
	.st18{display:inline;opacity:0.1;fill:#6C63FF;enable-background:new    ;}
	.st19{display:inline;fill:#DFE6F5;}
	.st20{display:inline;fill:#54576B;}
	.st21{display:inline;fill:#773377;}
	.st22{display:inline;opacity:0.6;fill:#FFFFFF;enable-background:new    ;}
	.st23{display:inline;opacity:0.6;fill:#E6E6E6;enable-background:new    ;}
	.st24{display:inline;opacity:0.6;fill:#773377;enable-background:new    ;}
	.st25{opacity:0.56;fill:#773377;enable-background:new    ;}
	.st26{display:inline;opacity:0.7;}
	.st27{fill:url(#SVGID_1_);}
	.st28{display:inline;opacity:5.000000e-02;enable-background:new    ;}
	.st29{display:inline;opacity:8.000000e-02;enable-background:new    ;}
	.st30{display:inline;fill:#E6E6E6;}
	.st31{display:inline;fill:#FF6584;}
	.st32{fill:#6D2077;}
	.st33{fill:#FFFFFF;}
	.st34{opacity:0.64;fill:#FFFFFF;}
</style>
<g id="dots" class="st0">
	<rect x="-256" y="104.8" class="st1" width="127" height="1.8"/>
	<rect x="-117.2" y="104.8" class="st1" width="127" height="1.8"/>
	<rect x="58.8" y="104.8" class="st1" width="127" height="1.8"/>
	<circle class="st1" cx="-129" cy="105.7" r="22.7"/>
	<circle class="st1" cx="22.5" cy="105.7" r="42.6"/>
	<circle class="st1" cx="185.8" cy="105.7" r="57.2"/>
	<circle class="st2" cx="211.2" cy="83" r="9.1"/>
	<circle class="st2" cx="191.3" cy="119.3" r="5.4"/>
	<circle class="st2" cx="162.3" cy="105.7" r="5.4"/>
</g>
<g id="swirl" class="st0">
	<path class="st3" d="M175,241.3c-19.4,0-38.6-3.8-56.5-11.1C57.2,205.2,27.7,135.3,52.7,74c0-0.1,0.1-0.1,0.1-0.2
		c20-49.1,76.1-72.7,125.2-52.7c0,0,0,0,0,0c39.3,16,58.2,60.9,42.2,100.2c-12.8,31.5-48.8,46.6-80.3,33.8c0,0,0,0,0,0
		c-25.2-10.3-37.3-39.1-27.1-64.3c0,0,0,0,0,0c8.3-20.2,31.3-29.9,51.5-21.7c16.2,6.6,24,25.1,17.4,41.3
		c-5.3,13-20.1,19.2-33.1,13.9c0,0,0,0,0,0c-10.4-4.3-15.4-16.2-11.2-26.6c0,0,0,0,0,0c3.4-8.4,13-12.4,21.4-9
		c6.7,2.8,10,10.4,7.2,17.2c-2.2,5.4-8.4,8-13.8,5.8c-4.4-1.8-6.5-6.8-4.7-11.2c1.4-3.5,5.5-5.2,9-3.8c2.9,1.2,4.2,4.4,3.1,7.3
		c-0.9,2.3-3.6,3.4-5.9,2.5c-1.9-0.8-2.8-2.9-2-4.8c0.6-1.5,2.4-2.3,3.9-1.7c1.3,0.5,1.9,2,1.4,3.2c-0.4,1.1-1.6,1.6-2.7,1.1
		c-0.9-0.4-1.3-1.4-0.9-2.2c0.3-0.7,1.1-1.1,1.9-0.8c0.6,0.3,0.9,1,0.7,1.6c-0.2,0.5-0.8,0.8-1.4,0.6c0,0,0,0,0,0
		c-0.5-0.2-0.7-0.7-0.5-1.2c0,0,0,0,0,0c0-0.1,0.1-0.2,0.2-0.3c-0.1,0.1-0.2,0.2-0.2,0.3c-0.2,0.5,0,1.1,0.6,1.4
		c0.7,0.3,1.5-0.1,1.8-0.8c0.4-0.9-0.1-2-1-2.4c-1.2-0.5-2.6,0.1-3.1,1.3c-0.6,1.5,0.1,3.3,1.7,4c2,0.8,4.2-0.1,5-2.1
		c1-2.5-0.2-5.4-2.7-6.4c-3.2-1.3-6.8,0.2-8.1,3.4c-1.6,4,0.3,8.6,4.3,10.3c5.1,2.1,10.9-0.4,13-5.5c2.6-6.4-0.5-13.7-6.9-16.3
		c-8-3.3-17.2,0.6-20.5,8.6c-4.1,10.1,0.7,21.6,10.8,25.7c0,0,0,0,0,0c12.7,5.2,27.1-0.9,32.3-13.6c6.4-15.9-1.2-34-17-40.4
		c-19.9-8.1-42.5,1.5-50.7,21.3c-10.1,24.9,1.8,53.3,26.7,63.4c31.1,12.7,66.7-2.3,79.4-33.4c0,0,0,0,0,0
		c15.9-39-2.8-83.5-41.8-99.3c0,0,0,0,0,0C129,1.9,73.2,25.4,53.4,74.1c-24.8,60.9,4.5,130.6,65.4,155.5
		c76.2,31.1,163.4-5.6,194.5-81.8l0.6,0.3c-22.8,55.8-76.7,92.5-136.9,93.3C176.3,241.3,175.7,241.3,175,241.3z M154.6,102.7
		C154.6,102.7,154.6,102.7,154.6,102.7c-0.1,0-0.1,0-0.1,0.1c0,0.1,0,0.3,0.1,0.3c0,0,0,0,0,0c0.2,0.1,0.4,0,0.5-0.2
		c0.1-0.3,0-0.6-0.2-0.7L154.6,102.7C154.7,102.7,154.7,102.7,154.6,102.7z"/>
	<rect x="259.2" y="46.9" class="st4" width="26.9" height="30.6"/>
	<path class="st3" d="M283.4,81.2l-27.6,0l0-31.3l27.6,0L283.4,81.2z M256.6,80.5l26.2,0l0-29.9l-26.2,0L256.6,80.5z"/>
</g>
<g id="process" class="st0">
	<rect x="-2.7" class="st5" width="308.7" height="210"/>
	<path class="st2" d="M221.3,137.6H97.1V77.2h124.2V137.6z M98.8,136h120.9V78.8H98.8V136z"/>
	<polygon class="st6" points="183,15.4 210,27.3 183,38.7 	"/>
	<circle class="st6" cx="131.1" cy="107.4" r="9.1"/>
	<circle class="st6" cx="159.2" cy="107.4" r="9.1"/>
	<circle class="st6" cx="187.4" cy="107.4" r="9.1"/>
	<path class="st7" d="M98,43l-5.3,6.8c-8.4-12-18.5-21.6-30-28.8C53,15,42.4,10.7,31.3,8.4C12.1,4.3-2.7,7-2.9,7.1l0.4,1.9
		c0.1,0,14.6-2.7,33.4,1.3c17,3.6,41.2,13.6,60.2,40.5l-8.3,1.8c5.2,1.6,11.7,5.4,16.2,8.9C97.8,55.8,97.1,48.4,98,43z"/>
	<path class="st7" d="M308.7,172.8c-0.1,0.1-11.7,9.2-30.2,14.4c-16.7,4.7-42.7,7.1-72.1-7.9l6.5-5.5c-5.4,1-12.8,0.6-18.5-0.3
		c3.6,4.4,7.7,10.7,9.5,15.9l1.5-8.4c13,6.7,26.5,10.5,40,11.5c2.3,0.2,4.6,0.3,7,0.3c9,0,18-1.3,26.7-3.7
		c18.9-5.3,30.7-14.6,30.8-14.7L308.7,172.8z"/>
	<path class="st7" d="M-1.5,159.9c0.1,0.1,11.7,9.2,30.2,14.4c16.7,4.7,42.7,7.1,72.1-7.9l-6.5-5.5c5.4,1,12.8,0.6,18.5-0.3
		c-3.6,4.4-7.7,10.7-9.5,15.9l-1.5-8.4c-13,6.7-26.5,10.5-40,11.5c-2.3,0.2-4.6,0.3-7,0.3c-9,0-18-1.3-26.7-3.7
		c-18.9-5.3-30.7-14.6-30.8-14.7L-1.5,159.9z"/>
	<path class="st6" d="M259.5,62.7c0-3.4,2.8-6.2,6.2-6.2c3.4,0,6.2,2.8,6.2,6.2c0,3.4-2.8,6.2-6.2,6.2
		C262.3,68.9,259.5,66.2,259.5,62.7z M260.5,62.7c0,2.9,2.3,5.2,5.2,5.2c2.9,0,5.2-2.3,5.2-5.2c0-2.9-2.3-5.2-5.2-5.2
		C262.8,57.5,260.5,59.9,260.5,62.7z"/>
	<path class="st6" d="M34.6,81.7l-9.2-9.8l9.8-9.2l9.2,9.8L34.6,81.7z M26.9,71.9l7.7,8.3l8.3-7.7l-7.7-8.3L26.9,71.9z"/>
	<rect x="264.9" y="123.1" class="st6" width="48.8" height="4.4"/>
	<rect x="264.9" y="135.5" class="st6" width="48.8" height="4.4"/>
	<rect x="264.9" y="148" class="st6" width="48.8" height="4.4"/>
</g>
<g id="analytics" class="st0">
	<path class="st3" d="M203.2,153.9c24.7-24.7,24.7-64.9,0-89.6c-11.9-11.9-28-18.6-44.8-18.6v63.4L203.2,153.9z"/>
	<path class="st4" d="M158.4,45.7c-35,0-63.4,28.4-63.4,63.4c0,23.2,12.7,44.5,33.1,55.6l30.3-55.7V45.7z"/>
	<path class="st8" d="M203.2,153.9l-44.8-44.8l-30.3,55.7C152.7,178.2,183.3,173.8,203.2,153.9L203.2,153.9z"/>
	<rect x="22.2" y="163" class="st4" width="12.1" height="12.1"/>
	<rect x="39.7" y="163" class="st3" width="12.1" height="12.1"/>
	<rect x="57.3" y="163" class="st8" width="12.1" height="12.1"/>
	<rect x="231.9" y="165.7" class="st3" width="49.9" height="2"/>
	<rect x="231.9" y="171.8" class="st3" width="49.9" height="2"/>
	<rect x="231.9" y="177.9" class="st3" width="49.9" height="2"/>
</g>
<g id="graph_3" class="st0">
	<rect x="114.9" y="26" class="st1" width="1.3" height="104.3"/>
	<rect x="156.8" y="26" class="st1" width="1.3" height="104.3"/>
	<rect x="62.1" y="25.4" class="st1" width="188.8" height="1.3"/>
	<rect x="62.1" y="83.5" class="st1" width="188.8" height="1.3"/>
	<rect x="62.1" y="129.8" class="st1" width="188.8" height="1.3"/>
	<rect x="74.9" y="186.3" class="st3" width="168.1" height="1.3"/>
	<path class="st3" d="M65.2,197.3c-5.9,0-10.6-4.8-10.6-10.6c0-5.9,4.8-10.6,10.6-10.6c5.9,0,10.6,4.8,10.6,10.6
		C75.8,192.5,71.1,197.3,65.2,197.3z M65.2,177.3c-5.2,0-9.4,4.2-9.4,9.4c0,5.2,4.2,9.4,9.4,9.4s9.4-4.2,9.4-9.4
		C74.6,181.5,70.4,177.3,65.2,177.3z"/>
	<rect x="114.9" y="130.4" class="st3" width="1.3" height="56.2"/>
	<rect x="156.8" y="84.1" class="st3" width="1.3" height="102.5"/>
	<rect x="199.3" y="26" class="st3" width="1.3" height="160.6"/>
	<circle class="st4" cx="115.5" cy="186.6" r="9.1"/>
	<circle class="st4" cx="157.7" cy="186.6" r="9.1"/>
	<circle class="st4" cx="199.9" cy="186.6" r="9.1"/>
	<circle class="st4" cx="200.2" cy="26" r="8.8"/>
	<circle class="st4" cx="200" cy="84.1" r="8.8"/>
	<circle class="st4" cx="157.7" cy="84.1" r="8.8"/>
	<circle class="st4" cx="157.5" cy="130.3" r="8.8"/>
	<circle class="st4" cx="115.8" cy="130.4" r="8.8"/>
	<circle class="st1" cx="47.1" cy="26" r="8.1"/>
	<circle class="st1" cx="47.1" cy="83.5" r="8.1"/>
	<circle class="st1" cx="47.1" cy="130.4" r="8.1"/>
	<rect x="243.1" y="18.4" class="st4" width="15" height="15"/>
	<rect x="243.1" y="75.9" class="st4" width="15" height="15"/>
	<rect x="243.1" y="122.8" class="st4" width="15" height="15"/>
	<path class="st3" d="M258.7,194.7h-16.3v-16.3h16.3V194.7z M243.7,193.4h13.8v-13.8h-13.8V193.4z"/>
</g>
<g id="graph2" class="st0">
	<line class="st9" x1="13.6" y1="47" x2="396.1" y2="47"/>
	<line class="st9" x1="13.6" y1="76.9" x2="396.1" y2="76.8"/>
	<line class="st9" x1="13.7" y1="106.8" x2="396.1" y2="106.7"/>
	<line class="st9" x1="13.7" y1="136.7" x2="396.1" y2="136.6"/>
	<line class="st10" x1="48.2" y1="128.5" x2="48.2" y2="166.5"/>
	<line class="st9" x1="13.7" y1="166.5" x2="396.1" y2="166.5"/>
	<line class="st10" x1="91.5" y1="166.5" x2="91.5" y2="109.9"/>
	<path class="st11" d="M342.7,99c-6.8,0.8-13.5-2.9-17.7-6.8c-4.3-4.1-7.5-9.1-10.6-14c-1-1.6-2-3.2-3-4.7
		c-5.4-8-10.7-13.4-16.7-16.9c-2.2-1.3-4.5-2.3-7-3c-0.2,0.6-0.5,1.1-0.9,1.5c-0.9,1-2.1,1.5-3.4,1.6l-0.2,0c-2.4,0-4.4-1.7-4.8-4.1
		c-2.2,0.2-4.3,0.7-6.4,1.5c-6,2.4-10.5,7.5-14.5,12.4c-4.9,6-9.7,12.2-14,18.6c-0.9,1.3-1.8,2.6-2.7,3.9c-4.8,7-9.7,14.3-16.2,20
		c-8.7,7.8-19.3,11.3-28.3,9.4c-10.9-2.2-18.8-11.6-24.6-19.5c-0.7-1-1.4-2-2.2-3.1c-5.3-7.5-10.9-15.3-18.9-19.7
		c-10.5-5.8-24.8-4.4-34,3.4c-4.5,3.8-7.8,8.8-11,13.7c-1.1,1.7-2.2,3.4-3.4,5.1c-6,8.6-12.2,13.3-19,14.4c-2.7,0.4-5.4,0.4-8.1,0.2
		c-1.8-0.1-3.7-0.2-5.5-0.1c-9.2,0.6-17.4,6-21.6,14.2l0.1,40l300.4,0l0-66.2c-2,1.2-4.5,0.5-5.7-1.5
		C342.9,99.3,342.8,99.1,342.7,99L342.7,99z"/>
	<line class="st10" x1="135.9" y1="72.6" x2="135.9" y2="166.5"/>
	<line class="st10" x1="178.7" y1="107.5" x2="178.7" y2="166.5"/>
	<line class="st10" x1="220.5" y1="113.3" x2="220.5" y2="166.5"/>
	<line class="st10" x1="259.7" y1="64.7" x2="259.7" y2="166.5"/>
	<line class="st10" x1="300.7" y1="60.1" x2="300.7" y2="166.5"/>
	<line class="st10" x1="347.3" y1="98.9" x2="347.3" y2="166.5"/>
	<path class="st4" d="M287.2,48.9c-1-0.9-2.2-1.3-3.5-1.3c-2.4,0.1-4.3,1.9-4.6,4.2c0,0.3,0,0.6,0,0.8c0,0.2,0,0.4,0.1,0.6
		c0.2,1.1,0.7,2.1,1.5,2.8c0.9,0.8,2.1,1.3,3.3,1.3l0.2,0c1.3-0.1,2.5-0.6,3.4-1.6c0.4-0.4,0.7-1,0.9-1.5c0.2-0.4,0.3-0.9,0.3-1.4
		c0-0.2,0-0.4,0-0.6C288.7,51,288.2,49.8,287.2,48.9z M287.1,53.9c-0.1,0.3-0.4,0.7-0.6,0.9c-1.3,1.4-3.5,1.5-4.9,0.2
		c-0.5-0.5-0.9-1.1-1-1.8c0-0.2-0.1-0.4-0.1-0.5c0-0.3,0-0.6,0.1-0.8c0.3-1.6,1.7-2.7,3.3-2.8l0.2,0c1.9,0,3.4,1.5,3.5,3.3
		c0,0.1,0,0.1,0,0.2C287.4,53,287.3,53.5,287.1,53.9z"/>
	<circle class="st4" cx="347.3" cy="98" r="4.2"/>
	<path class="st4" d="M280.5,52.7c0,0.2,0,0.4,0.1,0.5c-0.5,0-0.9,0-1.4,0.1c-2.2,0.2-4.3,0.7-6.4,1.5c-6,2.4-10.5,7.5-14.6,12.4
		c-4.9,6-9.7,12.2-14.1,18.6c-0.9,1.3-1.8,2.6-2.7,3.9c-4.8,7-9.7,14.3-16.2,20c-8.7,7.7-19.3,11.3-28.4,9.4
		c-10.9-2.2-18.8-11.6-24.6-19.5c-0.7-1-1.5-2-2.2-3.1c-5.4-7.5-10.9-15.3-18.9-19.7c-10.5-5.8-24.8-4.4-34,3.4
		c-4.4,3.8-7.8,8.8-11,13.7c-1.1,1.7-2.2,3.4-3.4,5.1c-6,8.6-12.2,13.3-19,14.4c-2.7,0.4-5.4,0.4-8.1,0.2c-1.8-0.1-3.6-0.1-5.5-0.1
		c-9.9,0.7-18.5,6.8-22.4,15.9l-1.3-0.5c4.1-9.6,13.2-16.1,23.6-16.8c1.9-0.1,3.7,0,5.6,0.1c2.6,0.2,5.2,0.1,7.8-0.2
		c6.4-1.1,12.3-5.6,18.1-13.9c1.2-1.6,2.3-3.4,3.4-5.1c3.3-4.9,6.6-10.1,11.3-14c10-8.3,24.1-9.7,35.5-3.5
		c8.3,4.6,13.9,12.5,19.3,20.1c0.7,1,1.4,2,2.2,3.1c5.6,7.7,13.3,16.8,23.7,18.9c8.6,1.8,18.8-1.6,27.1-9.1
		c6.3-5.6,11.2-12.8,15.9-19.8c0.9-1.3,1.8-2.6,2.7-3.9c4.4-6.4,9.2-12.7,14.1-18.7c4.2-5.1,8.8-10.3,15.1-12.8
		c2.2-0.9,4.5-1.4,6.9-1.6c0.5,0,0.9-0.1,1.4,0C280.5,52.1,280.5,52.4,280.5,52.7z"/>
	<path class="st4" d="M347.6,98.6c-8.1,3.3-16.8-1.1-21.8-5.8c-4.3-4.1-7.5-9.1-10.6-14c-1-1.5-2-3.2-3-4.7
		c-5.4-8.1-10.7-13.4-16.7-16.9c-2.2-1.3-4.5-2.3-7-3c-0.4-0.1-0.9-0.2-1.4-0.4c0.2-0.4,0.3-0.9,0.3-1.4c0.5,0.1,0.9,0.2,1.4,0.4
		c2.6,0.7,5,1.8,7.4,3.1c6.2,3.6,11.6,9.1,17.1,17.3c1,1.6,2,3.2,3,4.7c3,4.8,6.2,9.8,10.4,13.7c4.7,4.4,12.9,8.5,20.4,5.5
		L347.6,98.6z"/>
	<path class="st12" d="M14.3,40.8l12.9,0c0.3,0,0.6,0.3,0.6,0.6l0,5c0,0.3-0.3,0.6-0.6,0.6l-12.9,0c-0.3,0-0.6-0.3-0.6-0.6l0-5
		C13.6,41.1,13.9,40.8,14.3,40.8z"/>
	<path class="st4" d="M14.3,70.7l12.9,0c0.3,0,0.6,0.3,0.6,0.6l0,5c0,0.3-0.3,0.6-0.6,0.6l-12.9,0c-0.3,0-0.6-0.3-0.6-0.6l0-5
		C13.6,71,13.9,70.7,14.3,70.7z"/>
	<path class="st12" d="M14.3,100.6l12.9,0c0.3,0,0.6,0.3,0.6,0.6l0,5c0,0.3-0.3,0.6-0.6,0.6l-12.9,0c-0.3,0-0.6-0.3-0.6-0.6l0-5
		C13.6,100.8,13.9,100.6,14.3,100.6z"/>
	<path class="st12" d="M14.3,130.4l12.9,0c0.3,0,0.6,0.3,0.6,0.6l0,5c0,0.3-0.3,0.6-0.6,0.6l-12.9,0c-0.3,0-0.6-0.3-0.6-0.6l0-5
		C13.6,130.7,13.9,130.4,14.3,130.4z"/>
	<path class="st12" d="M14.3,160.3l12.9,0c0.3,0,0.6,0.3,0.6,0.6l0,5c0,0.3-0.3,0.6-0.6,0.6l-12.9,0c-0.3,0-0.6-0.3-0.6-0.6l0-5
		C13.6,160.6,13.9,160.3,14.3,160.3z"/>
	<path class="st12" d="M40.9,172.8l12.9,0c0.3,0,0.6,0.3,0.6,0.6l0,5c0,0.3-0.3,0.6-0.6,0.6l-12.9,0c-0.3,0-0.6-0.3-0.6-0.6l0-5
		C40.3,173.1,40.5,172.8,40.9,172.8z"/>
	<path class="st12" d="M85,172.8l12.9,0c0.3,0,0.6,0.3,0.6,0.6l0,5c0,0.3-0.3,0.6-0.6,0.6L85,179c-0.3,0-0.6-0.3-0.6-0.6l0-5
		C84.4,173.1,84.6,172.8,85,172.8z"/>
	<path class="st4" d="M127.9,174.7l12.9,0.1c0.3,0,0.6,0.3,0.6,0.6l0,5c0,0.3-0.3,0.6-0.6,0.6l-12.9-0.1c-0.3,0-0.6-0.3-0.6-0.6l0-5
		C127.3,175,127.5,174.7,127.9,174.7z"/>
	<path class="st12" d="M172.2,172.8l12.9,0c0.3,0,0.6,0.3,0.6,0.6l0,5c0,0.3-0.3,0.6-0.6,0.6l-12.9,0c-0.3,0-0.6-0.3-0.6-0.6l0-5
		C171.6,173.1,171.8,172.8,172.2,172.8z"/>
	<path class="st12" d="M214,172.8l12.9,0c0.3,0,0.6,0.3,0.6,0.6l0,5c0,0.3-0.3,0.6-0.6,0.6l-12.9,0c-0.3,0-0.6-0.3-0.6-0.6l0-5
		C213.4,173.1,213.7,172.8,214,172.8z"/>
	<path class="st4" d="M253.2,172.8l12.9,0c0.3,0,0.6,0.3,0.6,0.6l0,5c0,0.3-0.3,0.6-0.6,0.6l-12.9,0c-0.3,0-0.6-0.3-0.6-0.6l0-5
		C252.6,173.1,252.9,172.8,253.2,172.8z"/>
	<path class="st4" d="M294.5,172.8l12.9,0c0.3,0,0.6,0.3,0.6,0.6l0,5c0,0.3-0.3,0.6-0.6,0.6l-12.9,0c-0.3,0-0.6-0.3-0.6-0.6l0-5
		C293.9,173,294.2,172.8,294.5,172.8z"/>
	<path class="st4" d="M339.7,175.6l12.2,0.1c0.5,0,1,0.4,1,1l0,4.3c0,0.5-0.4,1-1,1l-12.2-0.1c-0.5,0-1-0.4-1-1l0-4.3
		C338.7,176.1,339.2,175.6,339.7,175.6z"/>
</g>
<g id="graph" class="st0">
	<polyline class="st1" points="-5.1,104.4 -5.1,217.1 209.8,217.1 	"/>
	<polygon class="st3" points="241.3,217.9 -6,217.9 -6,-4.8 -4.2,-4.8 -4.2,216.2 241.3,216.2 	"/>
	<path class="st3" d="M-2.4,218.2l-1.6-0.8c10.7-21.5,33.2-36.8,57.1-38.9c4.1-0.4,8.5-0.4,12.6-0.4c11.6-0.1,23.5-0.2,32.2-7.3
		c6.5-5.2,9.6-12.9,12.9-21.1c1.6-4.3,3.5-8.4,5.7-12.4c8.5-14.5,23.6-23.9,40.3-25c0.6,0,1.3-0.1,1.9-0.1c1.4-1.9,3-3.7,4.6-5.3
		c8.5-8.4,19.3-13.9,29.8-19.2l2.5-1.3c11.1-5.6,22.6-12,30.4-21.8c10-12.8,12.9-29.7,7.7-45l1.7-0.6c5.3,15.9,2.3,33.4-8,46.7
		c-8.1,10.1-19.7,16.5-31,22.3l-2.5,1.3c-10.4,5.2-21.1,10.7-29.4,18.9c-1.3,1.3-2.5,2.7-3.7,4.1c9.9,0.4,21.4,4.2,27.8,14.1
		c3.7,5.8,4.7,12.9,2.9,19.6c-1.6,5.7-5,10.2-9.8,12.5c-5,2.5-10.9,2.4-16.7-0.2c-6.8-3.1-11.8-9-13.9-16.1
		c-2.6-10.2,0.8-20.3,6.2-28.1c-0.2,0-0.4,0-0.6,0c-16.2,1.1-30.7,10.2-38.9,24.2c-2.1,3.9-4,8-5.6,12.2c-3.2,8-6.6,16.3-13.4,21.8
		c-9.2,7.5-21.5,7.6-33.3,7.7c-4.2,0-8.4,0.1-12.5,0.4C30,182.3,8.1,197.2-2.4,218.2z M159.7,114c-5.5,7.6-9.2,17.6-6.6,27.7
		c1.9,6.6,6.6,12.1,12.9,14.9c5.2,2.4,10.6,2.5,15.2,0.2c4.3-2.1,7.4-6.2,8.9-11.4c1.7-6.2,0.7-12.7-2.6-18.2
		C182,119.2,171.4,114.1,159.7,114z"/>
	<circle class="st4" cx="115.5" cy="141.1" r="15.7"/>
	<circle class="st4" cx="236.9" cy="24" r="15.7"/>
	<circle class="st4" cx="194.1" cy="88.6" r="15.7"/>
</g>
<g id="process_docs" class="st0">
	<rect y="-0.7" class="st5" width="306" height="210.7"/>
	<path class="st13" d="M37.8,66.8h48.7c1.5,0,2.6,1.2,2.6,2.6v68.1c0,1.5-1.2,2.6-2.6,2.6H37.8c-1.5,0-2.6-1.2-2.6-2.6V69.4
		C35.1,67.9,36.3,66.8,37.8,66.8z"/>
	<path class="st14" d="M44.6,85.2h35.1c2.4,0,4.4,2,4.4,4.4v14.5c0,2.4-2,4.4-4.4,4.4H44.6c-2.4,0-4.4-2-4.4-4.4V89.6
		C40.2,87.2,42.1,85.2,44.6,85.2z"/>
	<path class="st15" d="M50.4,118h23.5c0.6,0,1,0.5,1,1v1.5c0,0.6-0.5,1-1,1H50.4c-0.6,0-1-0.5-1-1V119C49.3,118.5,49.8,118,50.4,118
		z"/>
	<path class="st13" d="M129,66.8h48.7c1.5,0,2.6,1.2,2.6,2.6v68.1c0,1.5-1.2,2.6-2.6,2.6H129c-1.5,0-2.6-1.2-2.6-2.6V69.4
		C126.3,67.9,127.5,66.8,129,66.8z"/>
	<path class="st14" d="M141.4,78.2h24.1c0.5,0,0.9,0.4,0.9,0.9V91c0,0.5-0.4,0.9-0.9,0.9h-24.1c-0.5,0-0.9-0.4-0.9-0.9V79.1
		C140.5,78.6,140.9,78.2,141.4,78.2z"/>
	<path class="st15" d="M137.8,104.8h30.9c0.6,0,1,0.5,1,1v1.5c0,0.6-0.5,1-1,1h-30.9c-0.6,0-1-0.5-1-1v-1.5
		C136.7,105.3,137.2,104.8,137.8,104.8z"/>
	<path class="st15" d="M137.8,111.5h30.9c0.6,0,1,0.5,1,1v1.5c0,0.6-0.5,1-1,1h-30.9c-0.6,0-1-0.5-1-1v-1.5
		C136.7,112,137.2,111.5,137.8,111.5z"/>
	<path class="st13" d="M219.7,14.7h48.7c1.5,0,2.6,1.2,2.6,2.6v68.1c0,1.5-1.2,2.6-2.6,2.6h-48.7c-1.5,0-2.6-1.2-2.6-2.6V17.3
		C217.1,15.8,218.3,14.7,219.7,14.7z"/>
	<path class="st14" d="M227.4,26h33.3c0.5,0,0.9,0.4,0.9,0.9v14.6c0,0.5-0.4,0.9-0.9,0.9h-33.3c-0.5,0-0.9-0.4-0.9-0.9V26.9
		C226.5,26.4,226.9,26,227.4,26z"/>
	<path class="st14" d="M227.4,49.9h33.3c0.5,0,0.9,0.4,0.9,0.9v14.6c0,0.5-0.4,0.9-0.9,0.9h-33.3c-0.5,0-0.9-0.4-0.9-0.9V50.8
		C226.5,50.3,226.9,49.9,227.4,49.9z"/>
	<path class="st15" d="M226.1,79.5h6.8c1.3,0,2.3,1,2.3,2.3v0.4c0,1.3-1,2.3-2.3,2.3h-6.8c-1.3,0-2.3-1-2.3-2.3v-0.4
		C223.7,80.5,224.8,79.5,226.1,79.5z"/>
	<path class="st15" d="M240.7,79.5h6.8c1.3,0,2.3,1,2.3,2.3v0.4c0,1.3-1,2.3-2.3,2.3h-6.8c-1.3,0-2.3-1-2.3-2.3v-0.4
		C238.3,80.5,239.4,79.5,240.7,79.5z"/>
	<path class="st15" d="M255.3,79.5h6.8c1.3,0,2.3,1,2.3,2.3v0.4c0,1.3-1,2.3-2.3,2.3h-6.8c-1.3,0-2.3-1-2.3-2.3v-0.4
		C252.9,80.5,254,79.5,255.3,79.5z"/>
	<path class="st13" d="M219.6,118.9h48.7c1.5,0,2.6,1.2,2.6,2.6v68.1c0,1.5-1.2,2.6-2.6,2.6h-48.7c-1.5,0-2.6-1.2-2.6-2.6v-68.1
		C217,120,218.2,118.9,219.6,118.9z"/>
	<path class="st14" d="M222,127.4h14.3c0.5,0,0.9,0.4,0.9,0.9v14.6c0,0.5-0.4,0.9-0.9,0.9H222c-0.5,0-0.9-0.4-0.9-0.9v-14.6
		C221.2,127.8,221.6,127.4,222,127.4z"/>
	<path class="st15" d="M228.5,153.8h30.9c0.6,0,1,0.5,1,1v1.5c0,0.6-0.5,1-1,1h-30.9c-0.6,0-1-0.5-1-1v-1.5
		C227.5,154.3,227.9,153.8,228.5,153.8z"/>
	<path class="st15" d="M228.5,161.1h30.9c0.6,0,1,0.5,1,1v1.5c0,0.6-0.5,1-1,1h-30.9c-0.6,0-1-0.5-1-1v-1.5
		C227.5,161.6,227.9,161.1,228.5,161.1z"/>
	<path class="st15" d="M228.5,168.4h30.9c0.6,0,1,0.5,1,1v1.5c0,0.6-0.5,1-1,1h-30.9c-0.6,0-1-0.5-1-1v-1.5
		C227.5,168.9,227.9,168.4,228.5,168.4z"/>
	<path class="st13" d="M120.1,101.7l-0.8,0.4l-6.7,3.2l-0.6,0.3c-0.2,0.1-0.4,0-0.4-0.2c0,0,0,0,0,0c0,0,0-0.1,0-0.1v-1.9
		c0-0.2-0.1-0.3-0.3-0.3l0,0H95c-0.2,0-0.3-0.1-0.3-0.3V100c0-0.2,0.2-0.3,0.3-0.3h16.3c0.2,0,0.3-0.2,0.3-0.3v-1.9c0,0,0-0.1,0-0.1
		c0.1-0.2,0.3-0.2,0.4-0.2c0,0,0,0,0,0l0.6,0.3l6.7,3.2l0.8,0.4c0.2,0.1,0.2,0.3,0.2,0.4C120.2,101.6,120.2,101.6,120.1,101.7z"/>
	<path class="st13" d="M210.6,85.2l-0.5,0.7l-4.4,6l-0.4,0.5c-0.1,0.1-0.3,0.2-0.5,0.1c0,0,0,0,0,0c0,0-0.1-0.1-0.1-0.1l-0.9-1.7
		c-0.1-0.2-0.3-0.2-0.4-0.1l-14.4,7.7c-0.2,0.1-0.4,0-0.4-0.1c0,0,0,0,0,0l-1.3-2.4c-0.1-0.2,0-0.4,0.1-0.4c0,0,0,0,0,0l14.4-7.6
		c0.2-0.1,0.2-0.3,0.1-0.4c0,0,0,0,0,0l-0.9-1.7c0,0,0-0.1,0-0.1c0-0.2,0.1-0.3,0.3-0.4c0,0,0,0,0,0h0.7l7.4-0.3l0.9,0
		c0.2,0,0.3,0.1,0.3,0.3C210.7,85.1,210.7,85.1,210.6,85.2z"/>
	<path class="st13" d="M210.6,116.5h-0.9h-7.4h-0.7c-0.2,0-0.3-0.1-0.3-0.3c0,0,0,0,0,0c0,0,0-0.1,0-0.1l0.8-1.7
		c0.1-0.2,0-0.4-0.2-0.4c0,0,0,0,0,0l-14.7-7c-0.2-0.1-0.2-0.3-0.2-0.4l1.2-2.4c0.1-0.2,0.3-0.2,0.4-0.2c0,0,0,0,0,0l14.7,7.1
		c0.2,0.1,0.4,0,0.4-0.2l0.8-1.8c0.1-0.2,0.3-0.2,0.4-0.2c0,0,0.1,0.1,0.1,0.1l0.4,0.5l4.6,5.8l0.6,0.7c0.1,0.1,0.1,0.3,0,0.5
		C210.8,116.5,210.7,116.5,210.6,116.5z"/>
</g>
<g id="cogs" class="st0">
	<path class="st16" d="M357.9,241.2c-0.5,2.8-0.9,5.7-2.4,8.2c-1,1.5-2.3,2.9-3.7,4.1c-2.4,2.1-5,4.2-8,5.3c-3,1.1-6.6,1-9.2-0.8
		c-2.6-1.9-3.8-5.2-4.2-8.3c-0.7-4.4-0.2-9,1.8-12.8c2.4-4.4,6.6-7.4,10.1-10.9c2.6-2.6,4.8-5.5,6.6-8.6c0.8-1.6,1.8-3.2,3-4.6
		c1.2-1.4,3-2.2,4.8-2.1c1.5,0.2,2.8,1.2,4,2.2c1.5,1.3,5.5,3.5,5.7,5.5c0.1,1.7-2.9,5.5-3.6,7.1C360.7,230.4,359,235.7,357.9,241.2
		z"/>
	<path class="st17" d="M357.9,241.2c-0.5,2.8-0.9,5.7-2.4,8.2c-1,1.5-2.3,2.9-3.7,4.1c-2.4,2.1-5,4.2-8,5.3c-3,1.1-6.6,1-9.2-0.8
		c-2.6-1.9-3.8-5.2-4.2-8.3c-0.7-4.4-0.2-9,1.8-12.8c2.4-4.4,6.6-7.4,10.1-10.9c2.6-2.6,4.8-5.5,6.6-8.6c0.8-1.6,1.8-3.2,3-4.6
		c1.2-1.4,3-2.2,4.8-2.1c1.5,0.2,2.8,1.2,4,2.2c1.5,1.3,5.5,3.5,5.7,5.5c0.1,1.7-2.9,5.5-3.6,7.1C360.7,230.4,359,235.7,357.9,241.2
		z"/>
	<path class="st3" d="M152.4,156.6c-30.3,0.8-55.6-23.2-56.3-53.6c-0.8-30.3,23.2-55.6,53.6-56.3s55.6,23.2,56.3,53.6c0,0,0,0,0,0
		C206.8,130.6,182.8,155.8,152.4,156.6 M152.8,170.2c37.8-0.9,67.8-32.4,66.8-70.2s-32.4-67.8-70.2-66.8
		c-37.8,0.9-67.8,32.4-66.8,70.2c0,0,0,0,0,0C83.5,141.2,114.9,171.1,152.8,170.2z"/>
	
		<rect x="147" y="169.2" transform="matrix(0.9997 -2.474443e-02 2.474443e-02 0.9997 -4.3493 3.8915)" class="st3" width="16.1" height="16.9"/>
	
		<rect x="107.2" y="160.8" transform="matrix(0.4937 -0.8696 0.8696 0.4937 -88.3141 186.0583)" class="st3" width="16.9" height="16.1"/>
	
		<rect x="78.3" y="134.1" transform="matrix(0.8624 -0.5063 0.5063 0.8624 -60.0262 63.496)" class="st3" width="16.9" height="16.1"/>
	
		<rect x="76.5" y="56.6" transform="matrix(0.5088 -0.8609 0.8609 0.5088 -14.492 104.6794)" class="st3" width="16.1" height="16.9"/>
	
		<rect x="209.3" y="130.5" transform="matrix(0.463 -0.8863 0.8863 0.463 -6.4483 267.1981)" class="st3" width="16.1" height="16.9"/>
	
		<rect x="207.3" y="53.8" transform="matrix(0.8347 -0.5507 0.5507 0.8347 1.6373 129.0452)" class="st3" width="16.9" height="16.1"/>
	
		<rect x="181.8" y="158.6" transform="matrix(0.8442 -0.5361 0.5361 0.8442 -59.9677 127.7828)" class="st3" width="16.1" height="16.9"/>
	
		<rect x="143.3" y="17.1" transform="matrix(0.9997 -2.474443e-02 2.474443e-02 0.9997 -0.5853 3.7517)" class="st3" width="16.1" height="16.9"/>
	
		<rect x="104.3" y="27.8" transform="matrix(0.8442 -0.5361 0.5361 0.8442 -1.9405 65.8785)" class="st3" width="16.1" height="16.9"/>
	
		<rect x="178.1" y="26.4" transform="matrix(0.4937 -0.8696 0.8696 0.4937 64.4897 179.6442)" class="st3" width="16.9" height="16.1"/>
	
		<rect x="217.8" y="92.2" transform="matrix(0.9997 -2.474443e-02 2.474443e-02 0.9997 -2.3885 5.6612)" class="st3" width="19.4" height="14.4"/>
	
		<rect x="64.8" y="95.9" transform="matrix(0.9997 -2.474443e-02 2.474443e-02 0.9997 -2.529 1.8767)" class="st3" width="19.4" height="14.4"/>
	<path class="st3" d="M27.2,258.7c-30.3,0.8-55.6-23.2-56.3-53.6s23.2-55.6,53.6-56.3c30.3-0.8,55.6,23.2,56.3,53.6c0,0,0,0,0,0
		C81.6,232.7,57.6,257.9,27.2,258.7 M27.6,272.2c37.8-0.9,67.8-32.4,66.8-70.2S62,134.3,24.2,135.2c-37.8,0.9-67.8,32.4-66.8,70.2
		c0,0,0,0,0,0C-41.7,243.2-10.2,273.1,27.6,272.2z"/>
	
		<rect x="21.8" y="271.3" transform="matrix(0.9997 -2.474443e-02 2.474443e-02 0.9997 -6.9128 0.8249)" class="st3" width="16.1" height="16.9"/>
	
		<rect x="-18" y="262.9" transform="matrix(0.4937 -0.8696 0.8696 0.4937 -240.4667 128.8576)" class="st3" width="16.9" height="16.1"/>
	
		<rect x="-46.9" y="236.2" transform="matrix(0.8624 -0.5063 0.5063 0.8624 -128.9334 14.1564)" class="st3" width="16.9" height="16.1"/>
	
		<rect x="-48.7" y="158.6" transform="matrix(0.5088 -0.8609 0.8609 0.5088 -163.851 47.0355)" class="st3" width="16.1" height="16.9"/>
	
		<rect x="84.1" y="232.5" transform="matrix(0.463 -0.8863 0.8863 0.463 -164.1238 211.036)" class="st3" width="16.1" height="16.9"/>
	
		<rect x="82.1" y="155.8" transform="matrix(0.8347 -0.5507 0.5507 0.8347 -75.2648 76.9691)" class="st3" width="16.9" height="16.1"/>
	
		<rect x="56.6" y="260.6" transform="matrix(0.8442 -0.5361 0.5361 0.8442 -134.1925 76.5728)" class="st3" width="16.1" height="16.9"/>
	
		<rect x="18.1" y="119.1" transform="matrix(0.9997 -2.474443e-02 2.474443e-02 0.9997 -3.149 0.6851)" class="st3" width="16.1" height="16.9"/>
	
		<rect x="-20.9" y="129.9" transform="matrix(0.8442 -0.5361 0.5361 0.8442 -76.1622 14.6678)" class="st3" width="16.1" height="16.9"/>
	
		<rect x="52.9" y="128.5" transform="matrix(0.4937 -0.8696 0.8696 0.4937 -87.6549 122.4512)" class="st3" width="16.9" height="16.1"/>
	
		<rect x="92.6" y="194.2" transform="matrix(0.9997 -2.474443e-02 2.474443e-02 0.9997 -4.9522 2.5948)" class="st3" width="19.4" height="14.4"/>
	
		<rect x="-60.4" y="198" transform="matrix(0.9997 -2.474443e-02 2.474443e-02 0.9997 -5.0928 -1.1901)" class="st3" width="19.4" height="14.4"/>
	<path class="st3" d="M282.7,256.6c-0.6,0-1.3,0-1.9,0c-30.4-0.3-54.7-25.1-54.4-55.5c0.3-29.6,24-53.7,53.6-54.4c0.6,0,1.3,0,1.9,0
		c30.4,0.3,54.7,25.1,54.4,55.5C336,231.8,312.3,255.8,282.7,256.6 M283,270.1L283,270.1c37.8-0.9,67.8-32.4,66.8-70.2
		c-0.9-36.9-30.9-66.5-67.9-66.8c-0.8,0-1.6,0-2.4,0c-37.8,0.9-67.8,32.4-66.8,70.2c0.9,36.9,30.9,66.5,67.9,66.8
		C281.4,270.1,282.2,270.2,283,270.1L283,270.1z"/>
	
		<rect x="274.2" y="269.7" transform="matrix(9.984931e-03 -1 1 9.984931e-03 2.0935 557.5724)" class="st3" width="16.9" height="16.1"/>
	
		<rect x="235.1" y="259.5" transform="matrix(0.5236 -0.852 0.852 0.5236 -111.9365 334.9505)" class="st3" width="16.9" height="16.1"/>
	
		<rect x="207.1" y="231.8" transform="matrix(0.8794 -0.4761 0.4761 0.8794 -88.1838 131.5608)" class="st3" width="16.9" height="16.1"/>
	
		<rect x="208" y="154.3" transform="matrix(0.5384 -0.8427 0.8427 0.5384 -37.4293 257.1401)" class="st3" width="16.1" height="16.9"/>
	
		<rect x="338.1" y="232.7" transform="matrix(0.4935 -0.8697 0.8697 0.4935 -34.4227 423.2221)" class="st3" width="16.1" height="16.9"/>
	
		<rect x="340" y="154.7" transform="matrix(0.8544 -0.5196 0.5196 0.8544 -33.8186 204.7298)" class="st3" width="17" height="16.1"/>
	
		<rect x="309.7" y="259.9" transform="matrix(0.8623 -0.5065 0.5065 0.8623 -92.1358 197.8561)" class="st3" width="16.1" height="16.9"/>
	
		<rect x="275.7" y="117.5" transform="matrix(9.984931e-03 -1 1 9.984931e-03 155.7688 408.4207)" class="st3" width="16.9" height="16.1"/>
	
		<rect x="236.8" y="126.5" transform="matrix(0.8623 -0.5065 0.5065 0.8623 -34.6126 142.5752)" class="st3" width="16.1" height="16.9"/>
	
		<rect x="310.6" y="127.7" transform="matrix(0.5236 -0.852 0.852 0.5236 36.3869 336.4344)" class="st3" width="16.9" height="16.1"/>
	
		<rect x="350.6" y="192.2" transform="matrix(9.984931e-03 -1 1 9.984931e-03 152.269 557.713)" class="st3" width="14.4" height="19.4"/>
	
		<rect x="197.6" y="190.7" transform="matrix(9.985028e-03 -1 1 9.985028e-03 2.2546 403.1817)" class="st3" width="14.4" height="19.4"/>
	<path class="st16" d="M367.4,240.9c-0.5,2.8-0.9,5.7-2.4,8.2c-1,1.5-2.3,2.9-3.7,4.1c-2.4,2.1-5,4.2-8,5.3c-3,1.1-6.6,1-9.2-0.8
		c-2.6-1.9-3.8-5.2-4.2-8.3c-0.7-4.4-0.2-9,1.8-12.8c2.4-4.4,6.6-7.4,10.1-10.9c2.5-2.6,4.8-5.5,6.6-8.6c0.8-1.6,1.8-3.2,3-4.6
		c1.2-1.4,3-2.2,4.8-2.1c1.5,0.2,2.8,1.2,4,2.2c1.5,1.3,5.5,3.5,5.7,5.5c0.1,1.7-2.9,5.5-3.6,7.1
		C370.2,230.2,368.5,235.5,367.4,240.9z"/>
	<path class="st4" d="M376.6,221.3c0.6-7.1,6.4-12.4,9.9-18.6c1.7-3,2.8-6.3,4.4-9.4c1.7-3.4,3.7-6.7,5.8-9.8l6.3-9.6
		c3.7-5.6,7.4-11.3,12.2-16.1c8.5-1.7,15.4-8.1,23.4-11.4c6.4-2.6,13.4-3.1,20.1-4.6s13.7-4.3,17.5-10c1.4-2.2,2.5-4.7,3.1-7.3
		c0.8-2.5,1.1-5.2,0.8-7.8c-0.6-3.8-3.1-7.2-6.3-9.4c-3.1-2.3-6.9-3.6-10.6-4.6c-3-1-6.2-1.5-9.4-1.4c-3.2,0.2-6.4,1.5-8.3,4.1
		s-1.7,6.3-3.8,8.6c-1.1,1.2-2.4,2.2-3.8,3l-17,11.4c-2.7,1.8-5.4,3.5-8.2,5.1c-5.8,3-12.1,4.7-17.8,7.8s-11,8-12,14.5
		c-3,19.7-16.2,36.6-27.4,53.1c0.4,0.1,0.3,0.9,0.4,1.3c1.6,3.8,5,6.6,8.7,8.4S372.5,220.6,376.6,221.3z"/>
</g>
<g id="Layer_15" class="st0">
</g>
<g id="matrix" class="st0">
	<rect x="26.6" y="25.5" class="st4" width="3.6" height="5.7"/>
	<rect x="38.7" y="24.1" class="st4" width="3.6" height="5.7"/>
	<rect x="45.1" y="24.1" class="st4" width="3.6" height="5.7"/>
	<rect x="45.1" y="41.2" class="st4" width="3.6" height="5.7"/>
	<rect x="52.2" y="32.6" class="st4" width="3.6" height="5.7"/>
	<rect x="52.2" y="41.9" class="st4" width="3.6" height="5.7"/>
	<rect x="45.1" y="59.7" class="st4" width="3.6" height="5.7"/>
	<rect x="52.2" y="68.9" class="st4" width="3.6" height="5.7"/>
	<rect x="45.1" y="103.8" class="st4" width="3.6" height="5.7"/>
	<rect x="38.7" y="68.9" class="st4" width="3.6" height="5.7"/>
	<rect x="26.6" y="34.8" class="st4" width="3.6" height="5.7"/>
	<rect x="26.6" y="123.7" class="st4" width="3.6" height="5.7"/>
	<rect x="26.6" y="142.2" class="st4" width="3.6" height="5.7"/>
	<rect x="26.6" y="151.4" class="st4" width="3.6" height="5.7"/>
	<rect x="25.2" y="44.7" class="st4" width="5" height="0.7"/>
	<rect x="44.4" y="53.3" class="st4" width="5" height="0.7"/>
	<rect x="25.2" y="90.2" class="st4" width="5" height="0.7"/>
	<rect x="25.2" y="98.1" class="st4" width="5" height="0.7"/>
	<rect x="44.4" y="143.6" class="st4" width="5" height="0.7"/>
	<rect x="38.7" y="160.6" class="st4" width="5" height="0.7"/>
	<polygon class="st4" points="26.6,51.1 26.6,52.6 28,52.6 28,55.4 26.6,55.4 26.6,56.8 30.2,56.8 30.2,51.1 	"/>
	<polygon class="st4" points="38.7,41.2 38.7,42.6 40.1,42.6 40.1,45.4 38.7,45.4 38.7,46.9 42.3,46.9 42.3,41.2 	"/>
	<polygon class="st4" points="52.2,50.4 52.2,51.8 53.6,51.8 53.6,54.7 52.2,54.7 52.2,56.1 55.8,56.1 55.8,50.4 	"/>
	<polygon class="st4" points="52.2,78.2 52.2,79.6 53.6,79.6 53.6,82.4 52.2,82.4 52.2,83.8 55.8,83.8 55.8,78.2 	"/>
	<polygon class="st4" points="52.2,87.4 52.2,88.8 53.6,88.8 53.6,91.7 52.2,91.7 52.2,93.1 55.8,93.1 55.8,87.4 	"/>
	<polygon class="st4" points="52.2,59 52.2,60.4 53.6,60.4 53.6,63.2 52.2,63.2 52.2,64.6 55.8,64.6 55.8,59 	"/>
	<polygon class="st4" points="45.1,32.6 45.1,34.1 46.5,34.1 46.5,36.9 45.1,36.9 45.1,38.3 48.7,38.3 48.7,32.6 	"/>
	<rect x="45.1" y="78.2" class="st4" width="3.6" height="5.7"/>
	<rect x="45.1" y="95.2" class="st4" width="3.6" height="5.7"/>
	<polygon class="st4" points="45.1,86.7 45.1,88.1 46.5,88.1 46.5,91 45.1,91 45.1,92.4 48.7,92.4 48.7,86.7 	"/>
	<polygon class="st4" points="38.7,50.4 38.7,51.8 40.1,51.8 40.1,54.7 38.7,54.7 38.7,56.1 42.3,56.1 42.3,50.4 	"/>
	<polygon class="st4" points="38.7,59.7 38.7,61.1 40.1,61.1 40.1,63.9 38.7,63.9 38.7,65.4 42.3,65.4 42.3,59.7 	"/>
	<rect x="38.7" y="87.4" class="st4" width="3.6" height="5.7"/>
	<polygon class="st4" points="38.7,78.2 38.7,79.6 40.1,79.6 40.1,82.4 38.7,82.4 38.7,83.8 42.3,83.8 42.3,78.2 	"/>
	<rect x="38.7" y="105.9" class="st4" width="3.6" height="5.7"/>
	<polygon class="st4" points="38.7,96.6 38.7,98.1 40.1,98.1 40.1,100.9 38.7,100.9 38.7,102.3 42.3,102.3 42.3,96.6 	"/>
	<rect x="38.7" y="124.4" class="st4" width="3.6" height="5.7"/>
	<rect x="45.1" y="123" class="st4" width="3.6" height="5.7"/>
	<polygon class="st4" points="38.7,115.1 38.7,116.6 40.1,116.6 40.1,119.4 38.7,119.4 38.7,120.8 42.3,120.8 42.3,115.1 	"/>
	<polygon class="st4" points="52.2,115.1 52.2,116.6 53.6,116.6 53.6,119.4 52.2,119.4 52.2,120.8 55.8,120.8 55.8,115.1 	"/>
	<rect x="88.5" y="32.6" class="st4" width="3.6" height="5.7"/>
	<rect x="88.5" y="41.9" class="st4" width="3.6" height="5.7"/>
	<rect x="88.5" y="68.9" class="st4" width="3.6" height="5.7"/>
	<polygon class="st4" points="88.5,50.4 88.5,51.8 89.9,51.8 89.9,54.7 88.5,54.7 88.5,56.1 92,56.1 92,50.4 	"/>
	<polygon class="st4" points="88.5,78.2 88.5,79.6 89.9,79.6 89.9,82.4 88.5,82.4 88.5,83.8 92,83.8 92,78.2 	"/>
	<polygon class="st4" points="88.5,87.4 88.5,88.8 89.9,88.8 89.9,91.7 88.5,91.7 88.5,93.1 92,93.1 92,87.4 	"/>
	<polygon class="st4" points="88.5,59 88.5,60.4 89.9,60.4 89.9,63.2 88.5,63.2 88.5,64.6 92,64.6 92,59 	"/>
	<polygon class="st4" points="88.5,115.1 88.5,116.6 89.9,116.6 89.9,119.4 88.5,119.4 88.5,120.8 92,120.8 92,115.1 	"/>
	<rect x="38.7" y="142.9" class="st4" width="3.6" height="5.7"/>
	<rect x="45.1" y="132.2" class="st4" width="3.6" height="5.7"/>
	<rect x="38.7" y="167" class="st4" width="3.6" height="5.7"/>
	<rect x="45.1" y="150" class="st4" width="3.6" height="5.7"/>
	<polygon class="st4" points="38.7,133.6 38.7,135 40.1,135 40.1,137.9 38.7,137.9 38.7,139.3 42.3,139.3 42.3,133.6 	"/>
	<polygon class="st4" points="38.7,177 38.7,178.4 40.1,178.4 40.1,181.3 38.7,181.3 38.7,182.7 42.3,182.7 42.3,177 	"/>
	<rect x="77.8" y="24.1" class="st4" width="3.6" height="5.7"/>
	<rect x="77.8" y="68.9" class="st4" width="3.6" height="5.7"/>
	<rect x="77.8" y="160.6" class="st4" width="5" height="0.7"/>
	<polygon class="st4" points="77.8,41.2 77.8,42.6 79.2,42.6 79.2,45.4 77.8,45.4 77.8,46.9 81.4,46.9 81.4,41.2 	"/>
	<polygon class="st4" points="77.8,50.4 77.8,51.8 79.2,51.8 79.2,54.7 77.8,54.7 77.8,56.1 81.4,56.1 81.4,50.4 	"/>
	<polygon class="st4" points="77.8,59.7 77.8,61.1 79.2,61.1 79.2,63.9 77.8,63.9 77.8,65.4 81.4,65.4 81.4,59.7 	"/>
	<rect x="77.8" y="87.4" class="st4" width="3.6" height="5.7"/>
	<polygon class="st4" points="77.8,78.2 77.8,79.6 79.2,79.6 79.2,82.4 77.8,82.4 77.8,83.8 81.4,83.8 81.4,78.2 	"/>
	<rect x="77.8" y="105.9" class="st4" width="3.6" height="5.7"/>
	<polygon class="st4" points="77.8,96.6 77.8,98.1 79.2,98.1 79.2,100.9 77.8,100.9 77.8,102.3 81.4,102.3 81.4,96.6 	"/>
	<rect x="77.8" y="124.4" class="st4" width="3.6" height="5.7"/>
	<polygon class="st4" points="77.8,115.1 77.8,116.6 79.2,116.6 79.2,119.4 77.8,119.4 77.8,120.8 81.4,120.8 81.4,115.1 	"/>
	<rect x="77.8" y="142.9" class="st4" width="3.6" height="5.7"/>
	<rect x="77.8" y="167" class="st4" width="3.6" height="5.7"/>
	<polygon class="st4" points="77.8,133.6 77.8,135 79.2,135 79.2,137.9 77.8,137.9 77.8,139.3 81.4,139.3 81.4,133.6 	"/>
	<polygon class="st4" points="77.8,177 77.8,178.4 79.2,178.4 79.2,181.3 77.8,181.3 77.8,182.7 81.4,182.7 81.4,177 	"/>
	<rect x="94.9" y="24.1" class="st4" width="3.6" height="5.7"/>
	<rect x="94.9" y="68.9" class="st4" width="3.6" height="5.7"/>
	<rect x="94.9" y="160.6" class="st4" width="5" height="0.7"/>
	<polygon class="st4" points="94.9,41.2 94.9,42.6 96.3,42.6 96.3,45.4 94.9,45.4 94.9,46.9 98.4,46.9 98.4,41.2 	"/>
	<polygon class="st4" points="94.9,50.4 94.9,51.8 96.3,51.8 96.3,54.7 94.9,54.7 94.9,56.1 98.4,56.1 98.4,50.4 	"/>
	<polygon class="st4" points="94.9,59.7 94.9,61.1 96.3,61.1 96.3,63.9 94.9,63.9 94.9,65.4 98.4,65.4 98.4,59.7 	"/>
	<rect x="94.9" y="87.4" class="st4" width="3.6" height="5.7"/>
	<polygon class="st4" points="94.9,78.2 94.9,79.6 96.3,79.6 96.3,82.4 94.9,82.4 94.9,83.8 98.4,83.8 98.4,78.2 	"/>
	<rect x="94.9" y="105.9" class="st4" width="3.6" height="5.7"/>
	<polygon class="st4" points="94.9,96.6 94.9,98.1 96.3,98.1 96.3,100.9 94.9,100.9 94.9,102.3 98.4,102.3 98.4,96.6 	"/>
	<rect x="94.9" y="124.4" class="st4" width="3.6" height="5.7"/>
	<polygon class="st4" points="94.9,115.1 94.9,116.6 96.3,116.6 96.3,119.4 94.9,119.4 94.9,120.8 98.4,120.8 98.4,115.1 	"/>
	<rect x="94.9" y="142.9" class="st4" width="3.6" height="5.7"/>
	<rect x="94.9" y="167" class="st4" width="3.6" height="5.7"/>
	<polygon class="st4" points="94.9,133.6 94.9,135 96.3,135 96.3,137.9 94.9,137.9 94.9,139.3 98.4,139.3 98.4,133.6 	"/>
	<polygon class="st4" points="94.9,177 94.9,178.4 96.3,178.4 96.3,181.3 94.9,181.3 94.9,182.7 98.4,182.7 98.4,177 	"/>
	<polygon class="st4" points="45.1,167 45.1,168.5 46.5,168.5 46.5,171.3 45.1,171.3 45.1,172.7 48.7,172.7 48.7,167 	"/>
	<polygon class="st4" points="45.1,176.3 45.1,177.7 46.5,177.7 46.5,180.6 45.1,180.6 45.1,182 48.7,182 48.7,176.3 	"/>
	<polygon class="st4" points="26.6,68.9 26.6,70.3 28,70.3 28,73.2 26.6,73.2 26.6,74.6 30.2,74.6 30.2,68.9 	"/>
	<polygon class="st4" points="26.6,105.2 26.6,106.6 28,106.6 28,109.4 26.6,109.4 26.6,110.9 30.2,110.9 30.2,105.2 	"/>
	<polygon class="st4" points="26.6,114.4 26.6,115.8 28,115.8 28,118.7 26.6,118.7 26.6,120.1 30.2,120.1 30.2,114.4 	"/>
	<polygon class="st4" points="26.6,132.9 26.6,134.3 28,134.3 28,137.2 26.6,137.2 26.6,138.6 30.2,138.6 30.2,132.9 	"/>
	<polygon class="st4" points="26.6,159.2 26.6,160.6 28,160.6 28,163.5 26.6,163.5 26.6,164.9 30.2,164.9 30.2,159.2 	"/>
	<polygon class="st4" points="26.6,167 26.6,168.5 28,168.5 28,171.3 26.6,171.3 26.6,172.7 30.2,172.7 30.2,167 	"/>
	<rect x="63.6" y="25.5" class="st4" width="3.6" height="5.7"/>
	<rect x="63.6" y="34.8" class="st4" width="3.6" height="5.7"/>
	<rect x="62.2" y="44.7" class="st4" width="5" height="0.7"/>
	<rect x="62.2" y="90.2" class="st4" width="5" height="0.7"/>
	<rect x="62.2" y="98.1" class="st4" width="5" height="0.7"/>
	<polygon class="st4" points="63.6,51.1 63.6,52.6 65,52.6 65,55.4 63.6,55.4 63.6,56.8 67.2,56.8 67.2,51.1 	"/>
	<polygon class="st4" points="63.6,68.9 63.6,70.3 65,70.3 65,73.2 63.6,73.2 63.6,74.6 67.2,74.6 67.2,68.9 	"/>
	<polygon class="st4" points="63.6,105.2 63.6,106.6 65,106.6 65,109.4 63.6,109.4 63.6,110.9 67.2,110.9 67.2,105.2 	"/>
	<rect x="104.1" y="87.4" class="st4" width="3.6" height="5.7"/>
	<rect x="104.1" y="96.6" class="st4" width="3.6" height="5.7"/>
	<rect x="102.7" y="106.6" class="st4" width="5" height="0.7"/>
	<rect x="102.7" y="152.1" class="st4" width="5" height="0.7"/>
	<rect x="102.7" y="159.9" class="st4" width="5" height="0.7"/>
	<polygon class="st4" points="104.1,113 104.1,114.4 105.6,114.4 105.6,117.3 104.1,117.3 104.1,118.7 107.7,118.7 107.7,113 	"/>
	<polygon class="st4" points="104.1,130.8 104.1,132.2 105.6,132.2 105.6,135 104.1,135 104.1,136.5 107.7,136.5 107.7,130.8 	"/>
	<polygon class="st4" points="104.1,167 104.1,168.5 105.6,168.5 105.6,171.3 104.1,171.3 104.1,172.7 107.7,172.7 107.7,167 	"/>
	<rect x="115.5" y="25.5" class="st4" width="3.6" height="5.7"/>
	<rect x="127.6" y="24.1" class="st4" width="3.6" height="5.7"/>
	<rect x="134" y="24.1" class="st4" width="3.6" height="5.7"/>
	<rect x="134" y="41.2" class="st4" width="3.6" height="5.7"/>
	<rect x="141.1" y="32.6" class="st4" width="3.6" height="5.7"/>
	<rect x="141.1" y="41.9" class="st4" width="3.6" height="5.7"/>
	<rect x="134" y="59.7" class="st4" width="3.6" height="5.7"/>
	<rect x="141.1" y="68.9" class="st4" width="3.6" height="5.7"/>
	<rect x="134" y="103.8" class="st4" width="3.6" height="5.7"/>
	<rect x="127.6" y="68.9" class="st4" width="3.6" height="5.7"/>
	<rect x="115.5" y="34.8" class="st4" width="3.6" height="5.7"/>
	<rect x="115.5" y="123.7" class="st4" width="3.6" height="5.7"/>
	<rect x="115.5" y="142.2" class="st4" width="3.6" height="5.7"/>
	<rect x="115.5" y="151.4" class="st4" width="3.6" height="5.7"/>
	<rect x="114.1" y="44.7" class="st4" width="5" height="0.7"/>
	<rect x="133.3" y="53.3" class="st4" width="5" height="0.7"/>
	<rect x="114.1" y="90.2" class="st4" width="5" height="0.7"/>
	<rect x="114.1" y="98.1" class="st4" width="5" height="0.7"/>
	<rect x="133.3" y="143.6" class="st4" width="5" height="0.7"/>
	<rect x="127.6" y="160.6" class="st4" width="5" height="0.7"/>
	<polygon class="st4" points="115.5,51.1 115.5,52.6 116.9,52.6 116.9,55.4 115.5,55.4 115.5,56.8 119.1,56.8 119.1,51.1 	"/>
	<polygon class="st4" points="127.6,41.2 127.6,42.6 129,42.6 129,45.4 127.6,45.4 127.6,46.9 131.2,46.9 131.2,41.2 	"/>
	<polygon class="st4" points="141.1,50.4 141.1,51.8 142.5,51.8 142.5,54.7 141.1,54.7 141.1,56.1 144.7,56.1 144.7,50.4 	"/>
	<polygon class="st4" points="141.1,78.2 141.1,79.6 142.5,79.6 142.5,82.4 141.1,82.4 141.1,83.8 144.7,83.8 144.7,78.2 	"/>
	<polygon class="st4" points="141.1,87.4 141.1,88.8 142.5,88.8 142.5,91.7 141.1,91.7 141.1,93.1 144.7,93.1 144.7,87.4 	"/>
	<polygon class="st4" points="141.1,59 141.1,60.4 142.5,60.4 142.5,63.2 141.1,63.2 141.1,64.6 144.7,64.6 144.7,59 	"/>
	<polygon class="st4" points="134,32.6 134,34.1 135.4,34.1 135.4,36.9 134,36.9 134,38.3 137.6,38.3 137.6,32.6 	"/>
	<rect x="134" y="78.2" class="st4" width="3.6" height="5.7"/>
	<rect x="134" y="95.2" class="st4" width="3.6" height="5.7"/>
	<polygon class="st4" points="134,86.7 134,88.1 135.4,88.1 135.4,91 134,91 134,92.4 137.6,92.4 137.6,86.7 	"/>
	<polygon class="st4" points="127.6,50.4 127.6,51.8 129,51.8 129,54.7 127.6,54.7 127.6,56.1 131.2,56.1 131.2,50.4 	"/>
	<polygon class="st4" points="127.6,59.7 127.6,61.1 129,61.1 129,63.9 127.6,63.9 127.6,65.4 131.2,65.4 131.2,59.7 	"/>
	<rect x="127.6" y="87.4" class="st4" width="3.6" height="5.7"/>
	<polygon class="st4" points="127.6,78.2 127.6,79.6 129,79.6 129,82.4 127.6,82.4 127.6,83.8 131.2,83.8 131.2,78.2 	"/>
	<rect x="127.6" y="105.9" class="st4" width="3.6" height="5.7"/>
	<polygon class="st4" points="127.6,96.6 127.6,98.1 129,98.1 129,100.9 127.6,100.9 127.6,102.3 131.2,102.3 131.2,96.6 	"/>
	<rect x="127.6" y="124.4" class="st4" width="3.6" height="5.7"/>
	<rect x="134" y="123" class="st4" width="3.6" height="5.7"/>
	<polygon class="st4" points="127.6,115.1 127.6,116.6 129,116.6 129,119.4 127.6,119.4 127.6,120.8 131.2,120.8 131.2,115.1 	"/>
	<polygon class="st4" points="141.1,115.1 141.1,116.6 142.5,116.6 142.5,119.4 141.1,119.4 141.1,120.8 144.7,120.8 144.7,115.1 	
		"/>
	<rect x="177.4" y="32.6" class="st4" width="3.6" height="5.7"/>
	<rect x="177.4" y="41.9" class="st4" width="3.6" height="5.7"/>
	<rect x="177.4" y="68.9" class="st4" width="3.6" height="5.7"/>
	<polygon class="st4" points="177.4,50.4 177.4,51.8 178.8,51.8 178.8,54.7 177.4,54.7 177.4,56.1 180.9,56.1 180.9,50.4 	"/>
	<polygon class="st4" points="177.4,78.2 177.4,79.6 178.8,79.6 178.8,82.4 177.4,82.4 177.4,83.8 180.9,83.8 180.9,78.2 	"/>
	<polygon class="st4" points="177.4,87.4 177.4,88.8 178.8,88.8 178.8,91.7 177.4,91.7 177.4,93.1 180.9,93.1 180.9,87.4 	"/>
	<polygon class="st4" points="177.4,59 177.4,60.4 178.8,60.4 178.8,63.2 177.4,63.2 177.4,64.6 180.9,64.6 180.9,59 	"/>
	<polygon class="st4" points="177.4,115.1 177.4,116.6 178.8,116.6 178.8,119.4 177.4,119.4 177.4,120.8 180.9,120.8 180.9,115.1 	
		"/>
	<rect x="127.6" y="142.9" class="st4" width="3.6" height="5.7"/>
	<rect x="134" y="132.2" class="st4" width="3.6" height="5.7"/>
	<rect x="127.6" y="167" class="st4" width="3.6" height="5.7"/>
	<rect x="134" y="150" class="st4" width="3.6" height="5.7"/>
	<polygon class="st4" points="127.6,133.6 127.6,135 129,135 129,137.9 127.6,137.9 127.6,139.3 131.2,139.3 131.2,133.6 	"/>
	<polygon class="st4" points="127.6,177 127.6,178.4 129,178.4 129,181.3 127.6,181.3 127.6,182.7 131.2,182.7 131.2,177 	"/>
	<rect x="166.7" y="24.1" class="st4" width="3.6" height="5.7"/>
	<rect x="166.7" y="68.9" class="st4" width="3.6" height="5.7"/>
	<rect x="166.7" y="160.6" class="st4" width="5" height="0.7"/>
	<polygon class="st4" points="166.7,41.2 166.7,42.6 168.1,42.6 168.1,45.4 166.7,45.4 166.7,46.9 170.3,46.9 170.3,41.2 	"/>
	<polygon class="st4" points="166.7,50.4 166.7,51.8 168.1,51.8 168.1,54.7 166.7,54.7 166.7,56.1 170.3,56.1 170.3,50.4 	"/>
	<polygon class="st4" points="166.7,59.7 166.7,61.1 168.1,61.1 168.1,63.9 166.7,63.9 166.7,65.4 170.3,65.4 170.3,59.7 	"/>
	<rect x="166.7" y="87.4" class="st4" width="3.6" height="5.7"/>
	<polygon class="st4" points="166.7,78.2 166.7,79.6 168.1,79.6 168.1,82.4 166.7,82.4 166.7,83.8 170.3,83.8 170.3,78.2 	"/>
	<rect x="166.7" y="105.9" class="st4" width="3.6" height="5.7"/>
	<polygon class="st4" points="166.7,96.6 166.7,98.1 168.1,98.1 168.1,100.9 166.7,100.9 166.7,102.3 170.3,102.3 170.3,96.6 	"/>
	<rect x="166.7" y="124.4" class="st4" width="3.6" height="5.7"/>
	<polygon class="st4" points="166.7,115.1 166.7,116.6 168.1,116.6 168.1,119.4 166.7,119.4 166.7,120.8 170.3,120.8 170.3,115.1 	
		"/>
	<rect x="166.7" y="142.9" class="st4" width="3.6" height="5.7"/>
	<rect x="166.7" y="167" class="st4" width="3.6" height="5.7"/>
	<polygon class="st4" points="166.7,133.6 166.7,135 168.1,135 168.1,137.9 166.7,137.9 166.7,139.3 170.3,139.3 170.3,133.6 	"/>
	<polygon class="st4" points="166.7,177 166.7,178.4 168.1,178.4 168.1,181.3 166.7,181.3 166.7,182.7 170.3,182.7 170.3,177 	"/>
	<rect x="183.8" y="24.1" class="st4" width="3.6" height="5.7"/>
	<rect x="183.8" y="68.9" class="st4" width="3.6" height="5.7"/>
	<rect x="183.8" y="160.6" class="st4" width="5" height="0.7"/>
	<polygon class="st4" points="183.8,41.2 183.8,42.6 185.2,42.6 185.2,45.4 183.8,45.4 183.8,46.9 187.3,46.9 187.3,41.2 	"/>
	<polygon class="st4" points="183.8,50.4 183.8,51.8 185.2,51.8 185.2,54.7 183.8,54.7 183.8,56.1 187.3,56.1 187.3,50.4 	"/>
	<polygon class="st4" points="183.8,59.7 183.8,61.1 185.2,61.1 185.2,63.9 183.8,63.9 183.8,65.4 187.3,65.4 187.3,59.7 	"/>
	<rect x="183.8" y="87.4" class="st4" width="3.6" height="5.7"/>
	<polygon class="st4" points="183.8,78.2 183.8,79.6 185.2,79.6 185.2,82.4 183.8,82.4 183.8,83.8 187.3,83.8 187.3,78.2 	"/>
	<rect x="183.8" y="105.9" class="st4" width="3.6" height="5.7"/>
	<polygon class="st4" points="183.8,96.6 183.8,98.1 185.2,98.1 185.2,100.9 183.8,100.9 183.8,102.3 187.3,102.3 187.3,96.6 	"/>
	<rect x="183.8" y="124.4" class="st4" width="3.6" height="5.7"/>
	<polygon class="st4" points="183.8,115.1 183.8,116.6 185.2,116.6 185.2,119.4 183.8,119.4 183.8,120.8 187.3,120.8 187.3,115.1 	
		"/>
	<rect x="183.8" y="142.9" class="st4" width="3.6" height="5.7"/>
	<rect x="183.8" y="167" class="st4" width="3.6" height="5.7"/>
	<polygon class="st4" points="183.8,133.6 183.8,135 185.2,135 185.2,137.9 183.8,137.9 183.8,139.3 187.3,139.3 187.3,133.6 	"/>
	<polygon class="st4" points="183.8,177 183.8,178.4 185.2,178.4 185.2,181.3 183.8,181.3 183.8,182.7 187.3,182.7 187.3,177 	"/>
	<polygon class="st4" points="134,167 134,168.5 135.4,168.5 135.4,171.3 134,171.3 134,172.7 137.6,172.7 137.6,167 	"/>
	<polygon class="st4" points="134,176.3 134,177.7 135.4,177.7 135.4,180.6 134,180.6 134,182 137.6,182 137.6,176.3 	"/>
	<polygon class="st4" points="115.5,68.9 115.5,70.3 116.9,70.3 116.9,73.2 115.5,73.2 115.5,74.6 119.1,74.6 119.1,68.9 	"/>
	<polygon class="st4" points="115.5,105.2 115.5,106.6 116.9,106.6 116.9,109.4 115.5,109.4 115.5,110.9 119.1,110.9 119.1,105.2 	
		"/>
	<polygon class="st4" points="115.5,114.4 115.5,115.8 116.9,115.8 116.9,118.7 115.5,118.7 115.5,120.1 119.1,120.1 119.1,114.4 	
		"/>
	<polygon class="st4" points="115.5,132.9 115.5,134.3 116.9,134.3 116.9,137.2 115.5,137.2 115.5,138.6 119.1,138.6 119.1,132.9 	
		"/>
	<polygon class="st4" points="115.5,159.2 115.5,160.6 116.9,160.6 116.9,163.5 115.5,163.5 115.5,164.9 119.1,164.9 119.1,159.2 	
		"/>
	<polygon class="st4" points="115.5,167 115.5,168.5 116.9,168.5 116.9,171.3 115.5,171.3 115.5,172.7 119.1,172.7 119.1,167 	"/>
	<rect x="152.5" y="25.5" class="st4" width="3.6" height="5.7"/>
	<rect x="152.5" y="34.8" class="st4" width="3.6" height="5.7"/>
	<rect x="151.1" y="44.7" class="st4" width="5" height="0.7"/>
	<rect x="151.1" y="90.2" class="st4" width="5" height="0.7"/>
	<rect x="151.1" y="98.1" class="st4" width="5" height="0.7"/>
	<polygon class="st4" points="152.5,51.1 152.5,52.6 153.9,52.6 153.9,55.4 152.5,55.4 152.5,56.8 156,56.8 156,51.1 	"/>
	<polygon class="st4" points="152.5,68.9 152.5,70.3 153.9,70.3 153.9,73.2 152.5,73.2 152.5,74.6 156,74.6 156,68.9 	"/>
	<polygon class="st4" points="152.5,105.2 152.5,106.6 153.9,106.6 153.9,109.4 152.5,109.4 152.5,110.9 156,110.9 156,105.2 	"/>
	<rect x="193" y="87.4" class="st4" width="3.6" height="5.7"/>
	<rect x="193" y="96.6" class="st4" width="3.6" height="5.7"/>
	<rect x="191.6" y="106.6" class="st4" width="5" height="0.7"/>
	<rect x="191.6" y="152.1" class="st4" width="5" height="0.7"/>
	<rect x="191.6" y="159.9" class="st4" width="5" height="0.7"/>
	<polygon class="st4" points="193,113 193,114.4 194.4,114.4 194.4,117.3 193,117.3 193,118.7 196.6,118.7 196.6,113 	"/>
	<polygon class="st4" points="193,130.8 193,132.2 194.4,132.2 194.4,135 193,135 193,136.5 196.6,136.5 196.6,130.8 	"/>
	<polygon class="st4" points="193,167 193,168.5 194.4,168.5 194.4,171.3 193,171.3 193,172.7 196.6,172.7 196.6,167 	"/>
	<rect x="204.4" y="25.5" class="st4" width="3.6" height="5.7"/>
	<rect x="216.5" y="24.1" class="st4" width="3.6" height="5.7"/>
	<rect x="222.9" y="24.1" class="st4" width="3.6" height="5.7"/>
	<rect x="222.9" y="41.2" class="st4" width="3.6" height="5.7"/>
	<rect x="230" y="32.6" class="st4" width="3.6" height="5.7"/>
	<rect x="230" y="41.9" class="st4" width="3.6" height="5.7"/>
	<rect x="222.9" y="59.7" class="st4" width="3.6" height="5.7"/>
	<rect x="230" y="68.9" class="st4" width="3.6" height="5.7"/>
	<rect x="222.9" y="103.8" class="st4" width="3.6" height="5.7"/>
	<rect x="216.5" y="68.9" class="st4" width="3.6" height="5.7"/>
	<rect x="204.4" y="34.8" class="st4" width="3.6" height="5.7"/>
	<rect x="204.4" y="123.7" class="st4" width="3.6" height="5.7"/>
	<rect x="204.4" y="142.2" class="st4" width="3.6" height="5.7"/>
	<rect x="204.4" y="151.4" class="st4" width="3.6" height="5.7"/>
	<rect x="203" y="44.7" class="st4" width="5" height="0.7"/>
	<rect x="222.2" y="53.3" class="st4" width="5" height="0.7"/>
	<rect x="203" y="90.2" class="st4" width="5" height="0.7"/>
	<rect x="203" y="98.1" class="st4" width="5" height="0.7"/>
	<rect x="222.2" y="143.6" class="st4" width="5" height="0.7"/>
	<rect x="216.5" y="160.6" class="st4" width="5" height="0.7"/>
	<polygon class="st4" points="204.4,51.1 204.4,52.6 205.8,52.6 205.8,55.4 204.4,55.4 204.4,56.8 208,56.8 208,51.1 	"/>
	<polygon class="st4" points="216.5,41.2 216.5,42.6 217.9,42.6 217.9,45.4 216.5,45.4 216.5,46.9 220,46.9 220,41.2 	"/>
	<polygon class="st4" points="230,50.4 230,51.8 231.4,51.8 231.4,54.7 230,54.7 230,56.1 233.6,56.1 233.6,50.4 	"/>
	<polygon class="st4" points="230,78.2 230,79.6 231.4,79.6 231.4,82.4 230,82.4 230,83.8 233.6,83.8 233.6,78.2 	"/>
	<polygon class="st4" points="230,87.4 230,88.8 231.4,88.8 231.4,91.7 230,91.7 230,93.1 233.6,93.1 233.6,87.4 	"/>
	<polygon class="st4" points="230,59 230,60.4 231.4,60.4 231.4,63.2 230,63.2 230,64.6 233.6,64.6 233.6,59 	"/>
	<polygon class="st4" points="222.9,32.6 222.9,34.1 224.3,34.1 224.3,36.9 222.9,36.9 222.9,38.3 226.4,38.3 226.4,32.6 	"/>
	<rect x="222.9" y="78.2" class="st4" width="3.6" height="5.7"/>
	<rect x="222.9" y="95.2" class="st4" width="3.6" height="5.7"/>
	<polygon class="st4" points="222.9,86.7 222.9,88.1 224.3,88.1 224.3,91 222.9,91 222.9,92.4 226.4,92.4 226.4,86.7 	"/>
	<polygon class="st4" points="216.5,50.4 216.5,51.8 217.9,51.8 217.9,54.7 216.5,54.7 216.5,56.1 220,56.1 220,50.4 	"/>
	<polygon class="st4" points="216.5,59.7 216.5,61.1 217.9,61.1 217.9,63.9 216.5,63.9 216.5,65.4 220,65.4 220,59.7 	"/>
	<rect x="216.5" y="87.4" class="st4" width="3.6" height="5.7"/>
	<polygon class="st4" points="216.5,78.2 216.5,79.6 217.9,79.6 217.9,82.4 216.5,82.4 216.5,83.8 220,83.8 220,78.2 	"/>
	<rect x="216.5" y="105.9" class="st4" width="3.6" height="5.7"/>
	<polygon class="st4" points="216.5,96.6 216.5,98.1 217.9,98.1 217.9,100.9 216.5,100.9 216.5,102.3 220,102.3 220,96.6 	"/>
	<rect x="216.5" y="124.4" class="st4" width="3.6" height="5.7"/>
	<rect x="222.9" y="123" class="st4" width="3.6" height="5.7"/>
	<polygon class="st4" points="216.5,115.1 216.5,116.6 217.9,116.6 217.9,119.4 216.5,119.4 216.5,120.8 220,120.8 220,115.1 	"/>
	<polygon class="st4" points="230,115.1 230,116.6 231.4,116.6 231.4,119.4 230,119.4 230,120.8 233.6,120.8 233.6,115.1 	"/>
	<rect x="266.3" y="32.6" class="st4" width="3.6" height="5.7"/>
	<rect x="266.3" y="41.9" class="st4" width="3.6" height="5.7"/>
	<rect x="266.3" y="68.9" class="st4" width="3.6" height="5.7"/>
	<polygon class="st4" points="266.3,50.4 266.3,51.8 267.7,51.8 267.7,54.7 266.3,54.7 266.3,56.1 269.8,56.1 269.8,50.4 	"/>
	<polygon class="st4" points="266.3,78.2 266.3,79.6 267.7,79.6 267.7,82.4 266.3,82.4 266.3,83.8 269.8,83.8 269.8,78.2 	"/>
	<polygon class="st4" points="266.3,87.4 266.3,88.8 267.7,88.8 267.7,91.7 266.3,91.7 266.3,93.1 269.8,93.1 269.8,87.4 	"/>
	<polygon class="st4" points="266.3,59 266.3,60.4 267.7,60.4 267.7,63.2 266.3,63.2 266.3,64.6 269.8,64.6 269.8,59 	"/>
	<polygon class="st4" points="266.3,115.1 266.3,116.6 267.7,116.6 267.7,119.4 266.3,119.4 266.3,120.8 269.8,120.8 269.8,115.1 	
		"/>
	<rect x="216.5" y="142.9" class="st4" width="3.6" height="5.7"/>
	<rect x="222.9" y="132.2" class="st4" width="3.6" height="5.7"/>
	<rect x="216.5" y="167" class="st4" width="3.6" height="5.7"/>
	<rect x="222.9" y="150" class="st4" width="3.6" height="5.7"/>
	<polygon class="st4" points="216.5,133.6 216.5,135 217.9,135 217.9,137.9 216.5,137.9 216.5,139.3 220,139.3 220,133.6 	"/>
	<polygon class="st4" points="216.5,177 216.5,178.4 217.9,178.4 217.9,181.3 216.5,181.3 216.5,182.7 220,182.7 220,177 	"/>
	<rect x="255.6" y="24.1" class="st4" width="3.6" height="5.7"/>
	<rect x="255.6" y="68.9" class="st4" width="3.6" height="5.7"/>
	<rect x="255.6" y="160.6" class="st4" width="5" height="0.7"/>
	<polygon class="st4" points="255.6,41.2 255.6,42.6 257,42.6 257,45.4 255.6,45.4 255.6,46.9 259.2,46.9 259.2,41.2 	"/>
	<polygon class="st4" points="255.6,50.4 255.6,51.8 257,51.8 257,54.7 255.6,54.7 255.6,56.1 259.2,56.1 259.2,50.4 	"/>
	<polygon class="st4" points="255.6,59.7 255.6,61.1 257,61.1 257,63.9 255.6,63.9 255.6,65.4 259.2,65.4 259.2,59.7 	"/>
	<rect x="255.6" y="87.4" class="st4" width="3.6" height="5.7"/>
	<polygon class="st4" points="255.6,78.2 255.6,79.6 257,79.6 257,82.4 255.6,82.4 255.6,83.8 259.2,83.8 259.2,78.2 	"/>
	<rect x="255.6" y="105.9" class="st4" width="3.6" height="5.7"/>
	<polygon class="st4" points="255.6,96.6 255.6,98.1 257,98.1 257,100.9 255.6,100.9 255.6,102.3 259.2,102.3 259.2,96.6 	"/>
	<rect x="255.6" y="124.4" class="st4" width="3.6" height="5.7"/>
	<polygon class="st4" points="255.6,115.1 255.6,116.6 257,116.6 257,119.4 255.6,119.4 255.6,120.8 259.2,120.8 259.2,115.1 	"/>
	<rect x="255.6" y="142.9" class="st4" width="3.6" height="5.7"/>
	<rect x="255.6" y="167" class="st4" width="3.6" height="5.7"/>
	<polygon class="st4" points="255.6,133.6 255.6,135 257,135 257,137.9 255.6,137.9 255.6,139.3 259.2,139.3 259.2,133.6 	"/>
	<polygon class="st4" points="255.6,177 255.6,178.4 257,178.4 257,181.3 255.6,181.3 255.6,182.7 259.2,182.7 259.2,177 	"/>
	<rect x="272.7" y="24.1" class="st4" width="3.6" height="5.7"/>
	<rect x="272.7" y="68.9" class="st4" width="3.6" height="5.7"/>
	<rect x="272.7" y="160.6" class="st4" width="5" height="0.7"/>
	<polygon class="st4" points="272.7,41.2 272.7,42.6 274.1,42.6 274.1,45.4 272.7,45.4 272.7,46.9 276.2,46.9 276.2,41.2 	"/>
	<polygon class="st4" points="272.7,50.4 272.7,51.8 274.1,51.8 274.1,54.7 272.7,54.7 272.7,56.1 276.2,56.1 276.2,50.4 	"/>
	<polygon class="st4" points="272.7,59.7 272.7,61.1 274.1,61.1 274.1,63.9 272.7,63.9 272.7,65.4 276.2,65.4 276.2,59.7 	"/>
	<rect x="272.7" y="87.4" class="st4" width="3.6" height="5.7"/>
	<polygon class="st4" points="272.7,78.2 272.7,79.6 274.1,79.6 274.1,82.4 272.7,82.4 272.7,83.8 276.2,83.8 276.2,78.2 	"/>
	<rect x="272.7" y="105.9" class="st4" width="3.6" height="5.7"/>
	<polygon class="st4" points="272.7,96.6 272.7,98.1 274.1,98.1 274.1,100.9 272.7,100.9 272.7,102.3 276.2,102.3 276.2,96.6 	"/>
	<rect x="272.7" y="124.4" class="st4" width="3.6" height="5.7"/>
	<polygon class="st4" points="272.7,115.1 272.7,116.6 274.1,116.6 274.1,119.4 272.7,119.4 272.7,120.8 276.2,120.8 276.2,115.1 	
		"/>
	<rect x="272.7" y="142.9" class="st4" width="3.6" height="5.7"/>
	<rect x="272.7" y="167" class="st4" width="3.6" height="5.7"/>
	<polygon class="st4" points="272.7,133.6 272.7,135 274.1,135 274.1,137.9 272.7,137.9 272.7,139.3 276.2,139.3 276.2,133.6 	"/>
	<polygon class="st4" points="272.7,177 272.7,178.4 274.1,178.4 274.1,181.3 272.7,181.3 272.7,182.7 276.2,182.7 276.2,177 	"/>
	<polygon class="st4" points="222.9,167 222.9,168.5 224.3,168.5 224.3,171.3 222.9,171.3 222.9,172.7 226.4,172.7 226.4,167 	"/>
	<polygon class="st4" points="222.9,176.3 222.9,177.7 224.3,177.7 224.3,180.6 222.9,180.6 222.9,182 226.4,182 226.4,176.3 	"/>
	<polygon class="st4" points="204.4,68.9 204.4,70.3 205.8,70.3 205.8,73.2 204.4,73.2 204.4,74.6 208,74.6 208,68.9 	"/>
	<polygon class="st4" points="204.4,105.2 204.4,106.6 205.8,106.6 205.8,109.4 204.4,109.4 204.4,110.9 208,110.9 208,105.2 	"/>
	<polygon class="st4" points="204.4,114.4 204.4,115.8 205.8,115.8 205.8,118.7 204.4,118.7 204.4,120.1 208,120.1 208,114.4 	"/>
	<polygon class="st4" points="204.4,132.9 204.4,134.3 205.8,134.3 205.8,137.2 204.4,137.2 204.4,138.6 208,138.6 208,132.9 	"/>
	<polygon class="st4" points="204.4,159.2 204.4,160.6 205.8,160.6 205.8,163.5 204.4,163.5 204.4,164.9 208,164.9 208,159.2 	"/>
	<polygon class="st4" points="204.4,167 204.4,168.5 205.8,168.5 205.8,171.3 204.4,171.3 204.4,172.7 208,172.7 208,167 	"/>
	<rect x="241.4" y="25.5" class="st4" width="3.6" height="5.7"/>
	<rect x="241.4" y="34.8" class="st4" width="3.6" height="5.7"/>
	<rect x="240" y="44.7" class="st4" width="5" height="0.7"/>
	<rect x="240" y="90.2" class="st4" width="5" height="0.7"/>
	<rect x="240" y="98.1" class="st4" width="5" height="0.7"/>
	<polygon class="st4" points="241.4,51.1 241.4,52.6 242.8,52.6 242.8,55.4 241.4,55.4 241.4,56.8 244.9,56.8 244.9,51.1 	"/>
	<polygon class="st4" points="241.4,68.9 241.4,70.3 242.8,70.3 242.8,73.2 241.4,73.2 241.4,74.6 244.9,74.6 244.9,68.9 	"/>
	<polygon class="st4" points="241.4,105.2 241.4,106.6 242.8,106.6 242.8,109.4 241.4,109.4 241.4,110.9 244.9,110.9 244.9,105.2 	
		"/>
	<rect x="281.9" y="87.4" class="st4" width="3.6" height="5.7"/>
	<rect x="281.9" y="96.6" class="st4" width="3.6" height="5.7"/>
	<rect x="280.5" y="106.6" class="st4" width="5" height="0.7"/>
	<rect x="280.5" y="152.1" class="st4" width="5" height="0.7"/>
	<rect x="280.5" y="159.9" class="st4" width="5" height="0.7"/>
	<polygon class="st4" points="281.9,113 281.9,114.4 283.3,114.4 283.3,117.3 281.9,117.3 281.9,118.7 285.5,118.7 285.5,113 	"/>
	<polygon class="st4" points="281.9,130.8 281.9,132.2 283.3,132.2 283.3,135 281.9,135 281.9,136.5 285.5,136.5 285.5,130.8 	"/>
	<polygon class="st4" points="281.9,167 281.9,168.5 283.3,168.5 283.3,171.3 281.9,171.3 281.9,172.7 285.5,172.7 285.5,167 	"/>
</g>
<g id="blobs" class="st0">
	<path class="st4" d="M48.4,68.5c8.8-29,32.5-51,62-57.9C78.4-23.6,24.8-25.5-9.5,6.5s-36.1,85.6-4.2,119.9
		C7,148.6,37.9,158,67.5,151.2C46.8,129,39.5,97.5,48.4,68.5z"/>
	<path class="st3" d="M166.9,16.1c-14.2-4.4-29.4-4.9-43.9-1.5c32,34.2,30.1,87.9-4.1,119.9C108,144.6,94.6,151.7,80.1,155
		c32,34.3,85.6,36.1,119.9,4.2s36.1-85.6,4.2-119.9C194,28.4,181.1,20.4,166.9,16.1L166.9,16.1z"/>
	
		<ellipse transform="matrix(0.2922 -0.9564 0.9564 0.2922 -12.2067 148.6785)" class="st2" cx="94.3" cy="82.6" rx="73.5" ry="42.4"/>
</g>
<g id="microphone" class="st0">
	<path class="st18" d="M161.1,218.5c21.2-11.7,45.5-15.5,69.1-10.5c33.6,7.1,75.8,4.3,83.9-50.7c14-94-44.5-118.8-44.5-118.8
		s-38.9-3.3-61.9-15.7c-32.7-17.6-70-19.9-102.8-5c-21,9.5-38.3,22.8-41.2,41c-8.3,50.9,5.3,79-20.1,95.6s-3.7,62.3,15.8,60.7
		c19.5-1.6,63.4-18.9,80.5,1.2C146,223.5,153.7,222.6,161.1,218.5z"/>
	<path class="st19" d="M230.6,85v37.6c0,6.1-2.1,12.1-5.9,16.9c-0.7,0.8-1.3,1.6-2.1,2.4c-10.7,10.7-28,10.7-38.7,0.1
		c0,0-0.1-0.1-0.1-0.1c-0.7-0.7-1.4-1.5-2.1-2.4c-3.8-4.8-5.9-10.8-5.9-16.9V85c0-6.4,2.2-12.6,6.3-17.5c0.7-0.9,1.5-1.7,2.3-2.5
		c10.5-9.9,26.9-9.9,37.4,0c0.2,0.2,0.4,0.4,0.7,0.6c0.6,0.6,1.2,1.2,1.7,1.8C228.4,72.4,230.6,78.6,230.6,85z"/>
	<path class="st17" d="M230.6,85v37.6c0,6.1-2.1,12.1-5.9,16.9c-0.7,0.8-1.3,1.6-2.1,2.4c-10.7,10.7-28,10.7-38.7,0.1
		c0,0-0.1-0.1-0.1-0.1c-0.7-0.7-1.4-1.5-2.1-2.4c-3.8-4.8-5.9-10.8-5.9-16.9V85c0-6.4,2.2-12.6,6.3-17.5c0.7-0.9,1.5-1.7,2.3-2.5
		c10.5-9.9,26.9-9.9,37.4,0c0.2,0.2,0.4,0.4,0.7,0.6c0.6,0.6,1.2,1.2,1.7,1.8C228.4,72.4,230.6,78.6,230.6,85z"/>
	<path class="st19" d="M231.7,85v37.6c0,6.1-2.1,12.1-5.9,16.9c-0.7,0.8-1.3,1.6-2.1,2.4c-10.7,10.7-28,10.7-38.7,0.1
		c0,0-0.1-0.1-0.1-0.1c-0.7-0.7-1.4-1.5-2.1-2.4c-3.8-4.8-5.9-10.8-5.9-16.9V85c0-6.4,2.2-12.6,6.3-17.5c0.7-0.9,1.5-1.7,2.3-2.5
		c10.5-9.9,26.9-9.9,37.4,0c0.2,0.2,0.4,0.4,0.7,0.6c0.6,0.6,1.2,1.2,1.7,1.8C229.5,72.4,231.7,78.6,231.7,85z"/>
	<circle class="st17" cx="192.4" cy="66.2" r="1.7"/>
	<circle class="st17" cx="192.4" cy="71.9" r="1.7"/>
	<circle class="st17" cx="192.4" cy="77.6" r="1.7"/>
	<circle class="st17" cx="192.4" cy="83.3" r="1.7"/>
	<circle class="st17" cx="192.4" cy="89" r="1.7"/>
	<circle class="st17" cx="192.4" cy="94.7" r="1.7"/>
	<circle class="st17" cx="192.4" cy="100.4" r="1.7"/>
	<circle class="st17" cx="192.4" cy="106.1" r="1.7"/>
	<circle class="st17" cx="192.4" cy="111.8" r="1.7"/>
	<circle class="st17" cx="192.4" cy="117.5" r="1.7"/>
	<circle class="st17" cx="192.4" cy="123.2" r="1.7"/>
	<circle class="st17" cx="192.4" cy="128.9" r="1.7"/>
	<circle class="st17" cx="192.4" cy="134.6" r="1.7"/>
	<circle class="st17" cx="192.4" cy="140.3" r="1.7"/>
	<path class="st17" d="M186.1,66.2c0,0.9-0.8,1.7-1.7,1.7c-0.4,0-0.8-0.1-1.1-0.4c0.7-0.9,1.5-1.7,2.3-2.5
		C185.9,65.3,186.1,65.7,186.1,66.2z"/>
	<circle class="st17" cx="184.4" cy="71.9" r="1.7"/>
	<circle class="st17" cx="184.4" cy="77.6" r="1.7"/>
	<circle class="st17" cx="184.4" cy="83.3" r="1.7"/>
	<circle class="st17" cx="184.4" cy="89" r="1.7"/>
	<circle class="st17" cx="184.4" cy="94.7" r="1.7"/>
	<circle class="st17" cx="184.4" cy="100.4" r="1.7"/>
	<circle class="st17" cx="184.4" cy="106.1" r="1.7"/>
	<circle class="st17" cx="184.4" cy="111.8" r="1.7"/>
	<circle class="st17" cx="184.4" cy="117.5" r="1.7"/>
	<circle class="st17" cx="184.4" cy="123.2" r="1.7"/>
	<circle class="st17" cx="184.4" cy="128.9" r="1.7"/>
	<circle class="st17" cx="184.4" cy="134.6" r="1.7"/>
	<path class="st17" d="M186.1,140.3c0,0.7-0.5,1.4-1.2,1.6c-0.7-0.7-1.4-1.5-2.1-2.4c0.4-0.9,1.4-1.2,2.3-0.8
		C185.7,139,186.1,139.6,186.1,140.3L186.1,140.3z"/>
	<circle class="st17" cx="200.4" cy="66.2" r="1.7"/>
	<circle class="st17" cx="200.4" cy="71.9" r="1.7"/>
	<circle class="st17" cx="200.4" cy="77.6" r="1.7"/>
	<circle class="st17" cx="200.4" cy="83.3" r="1.7"/>
	<circle class="st17" cx="200.4" cy="89" r="1.7"/>
	<circle class="st17" cx="200.4" cy="94.7" r="1.7"/>
	<circle class="st17" cx="200.4" cy="100.4" r="1.7"/>
	<circle class="st17" cx="200.4" cy="106.1" r="1.7"/>
	<circle class="st17" cx="200.4" cy="111.8" r="1.7"/>
	<circle class="st17" cx="200.4" cy="117.5" r="1.7"/>
	<circle class="st17" cx="200.4" cy="123.2" r="1.7"/>
	<circle class="st17" cx="200.4" cy="128.9" r="1.7"/>
	<circle class="st17" cx="200.4" cy="134.6" r="1.7"/>
	<circle class="st17" cx="200.4" cy="140.3" r="1.7"/>
	<circle class="st17" cx="208.3" cy="66.2" r="1.7"/>
	<circle class="st17" cx="208.3" cy="71.9" r="1.7"/>
	<circle class="st17" cx="208.3" cy="77.6" r="1.7"/>
	<circle class="st17" cx="208.3" cy="83.3" r="1.7"/>
	<circle class="st17" cx="208.3" cy="89" r="1.7"/>
	<circle class="st17" cx="208.3" cy="94.7" r="1.7"/>
	<circle class="st17" cx="208.3" cy="100.4" r="1.7"/>
	<circle class="st17" cx="208.3" cy="106.1" r="1.7"/>
	<circle class="st17" cx="208.3" cy="111.8" r="1.7"/>
	<circle class="st17" cx="208.3" cy="117.5" r="1.7"/>
	<circle class="st17" cx="208.3" cy="123.2" r="1.7"/>
	<circle class="st17" cx="208.3" cy="128.9" r="1.7"/>
	<circle class="st17" cx="208.3" cy="134.6" r="1.7"/>
	<circle class="st17" cx="208.3" cy="140.3" r="1.7"/>
	<circle class="st17" cx="216.3" cy="66.2" r="1.7"/>
	<circle class="st17" cx="216.3" cy="71.9" r="1.7"/>
	<circle class="st17" cx="216.3" cy="77.6" r="1.7"/>
	<circle class="st17" cx="216.3" cy="83.3" r="1.7"/>
	<circle class="st17" cx="216.3" cy="89" r="1.7"/>
	<circle class="st17" cx="216.3" cy="94.7" r="1.7"/>
	<circle class="st17" cx="216.3" cy="100.4" r="1.7"/>
	<circle class="st17" cx="216.3" cy="106.1" r="1.7"/>
	<circle class="st17" cx="216.3" cy="111.8" r="1.7"/>
	<circle class="st17" cx="216.3" cy="117.5" r="1.7"/>
	<circle class="st17" cx="216.3" cy="123.2" r="1.7"/>
	<circle class="st17" cx="216.3" cy="128.9" r="1.7"/>
	<circle class="st17" cx="216.3" cy="134.6" r="1.7"/>
	<circle class="st17" cx="216.3" cy="140.3" r="1.7"/>
	<path class="st17" d="M225.4,67.5c-0.7,0.6-1.8,0.5-2.4-0.2c-0.3-0.3-0.4-0.7-0.4-1.1c0-0.4,0.2-0.8,0.5-1.2
		c0.2,0.2,0.4,0.4,0.7,0.6C224.3,66.2,224.9,66.8,225.4,67.5z"/>
	<circle class="st17" cx="224.3" cy="71.9" r="1.7"/>
	<circle class="st17" cx="224.3" cy="77.6" r="1.7"/>
	<circle class="st17" cx="224.3" cy="83.3" r="1.7"/>
	<circle class="st17" cx="224.3" cy="89" r="1.7"/>
	<circle class="st17" cx="224.3" cy="94.7" r="1.7"/>
	<circle class="st17" cx="224.3" cy="100.4" r="1.7"/>
	<circle class="st17" cx="224.3" cy="106.1" r="1.7"/>
	<circle class="st17" cx="224.3" cy="111.8" r="1.7"/>
	<circle class="st17" cx="224.3" cy="117.5" r="1.7"/>
	<circle class="st17" cx="224.3" cy="123.2" r="1.7"/>
	<circle class="st17" cx="224.3" cy="128.9" r="1.7"/>
	<circle class="st17" cx="224.3" cy="134.6" r="1.7"/>
	<path class="st17" d="M225.9,139.5c-0.7,0.8-1.3,1.6-2.1,2.4c-0.9-0.3-1.4-1.3-1.1-2.2c0.3-0.9,1.3-1.4,2.2-1.1
		C225.3,138.8,225.7,139.1,225.9,139.5z"/>
	<path class="st20" d="M202.6,119.8h1.3c1.8,0,3.3,1.5,3.3,3.3v69.8c0,1.8-1.5,3.3-3.3,3.3h-1.3c-1.8,0-3.3-1.5-3.3-3.3v-69.8
		C199.2,121.2,200.7,119.8,202.6,119.8z"/>
	<path class="st20" d="M180.1,185.9h46.2c2.4,0,4.3,1.9,4.3,4.3v1.7c0,2.4-1.9,4.3-4.3,4.3h-46.2c-2.4,0-4.3-1.9-4.3-4.3v-1.7
		C175.8,187.8,177.8,185.9,180.1,185.9z"/>
	<path class="st17" d="M202.6,119.8h1.3c1.8,0,3.3,1.5,3.3,3.3v69.8c0,1.8-1.5,3.3-3.3,3.3h-1.3c-1.8,0-3.3-1.5-3.3-3.3v-69.8
		C199.2,121.2,200.7,119.8,202.6,119.8z"/>
	<path class="st17" d="M180.1,185.9h46.2c2.4,0,4.3,1.9,4.3,4.3v1.7c0,2.4-1.9,4.3-4.3,4.3h-46.2c-2.4,0-4.3-1.9-4.3-4.3v-1.7
		C175.8,187.8,177.8,185.9,180.1,185.9z"/>
	<path class="st20" d="M203.7,119.8h1.3c1.8,0,3.3,1.5,3.3,3.3v69.8c0,1.8-1.5,3.3-3.3,3.3h-1.3c-1.8,0-3.3-1.5-3.3-3.3v-69.8
		C200.4,121.2,201.9,119.8,203.7,119.8z"/>
	<path class="st20" d="M181.3,185.9h46.2c2.4,0,4.3,1.9,4.3,4.3v1.7c0,2.4-1.9,4.3-4.3,4.3h-46.2c-2.4,0-4.3-1.9-4.3-4.3v-1.7
		C177,187.8,178.9,185.9,181.3,185.9z"/>
	<path class="st20" d="M251.9,126.2c-12.4,26.9-44.2,38.7-71,26.3c-11.6-5.3-21-14.7-26.3-26.3c-5.7-8.1-10.6-24.4-10.6-22.4
		c0,32.8,26.5,59.3,59.3,59.3c32.8,0,59.3-26.5,59.3-59.3c0,0,0,0,0,0C262.5,101.9,257.6,118.1,251.9,126.2z"/>
	<path class="st20" d="M203.2,44.5c-19.4,0-37.6,9.5-48.7,25.5c-3.3,7-4.9,14.7-4.9,22.4c0,1.9,0.1,3.8,0.3,5.7
		c3-29.4,29.3-50.9,58.7-47.9c25.3,2.6,45.3,22.6,47.9,47.9c0.2-1.9,0.3-3.8,0.3-5.7c0-7.7-1.7-15.4-4.9-22.4
		C240.8,54,222.6,44.5,203.2,44.5z"/>
	<circle class="st17" cx="204.4" cy="127.2" r="2.3"/>
	<path class="st19" d="M279,200c-3.4,0-6.8-0.7-9.9-2.2c-11.5-5.4-17.2-4.7-25.7-3.7c-8,1.1-16.2,1.4-24.2,0.9
		c-4.6-0.2-8.8-2.5-11.5-6.2c-12.7-16.5-4.2-59.9-3.8-61.8c0.1-0.3,0.4-0.5,0.7-0.4c0.3,0.1,0.5,0.3,0.4,0.6
		c-0.1,0.4-8.8,44.8,3.6,60.9c2.5,3.4,6.4,5.5,10.7,5.7c8,0.5,16.1,0.2,24-0.9c8.8-1.1,14.6-1.8,26.3,3.8
		c18.8,8.8,40.8-13.7,41-13.9c0.2-0.2,0.6-0.2,0.8,0.1c0.2,0.2,0.2,0.5,0,0.7C311.3,183.9,295.5,200,279,200z"/>
</g>
<g id="resources" class="st0">
	<rect x="173.1" y="44.9" class="st4" width="80" height="91"/>
	<rect x="187.1" y="60.8" class="st1" width="52" height="6"/>
	<rect x="187.1" y="77.8" class="st1" width="52" height="6"/>
	<rect x="187.1" y="94.8" class="st1" width="52" height="6"/>
	<path class="st3" d="M268.1,123.9l-82,0l0.1-93l82,0L268.1,123.9z M188.1,121.8l78,0l0.1-89l-78,0L188.1,121.8z"/>
	<rect x="36.8" y="86.9" class="st1" width="80" height="91"/>
	<rect x="50.8" y="107.9" class="st3" width="52" height="44"/>
	<path class="st3" d="M131.7,165.9l-82,0l0.1-93l82,0L131.7,165.9z M51.7,163.8l78,0l0.1-89l-78,0L51.7,163.8z"/>
	
		<ellipse transform="matrix(0.9997 -2.378936e-02 2.378936e-02 0.9997 -3.0675 1.8631)" class="st4" cx="76.8" cy="129.9" rx="12" ry="12"/>
</g>
<g id="shield" class="st0">
	<g id="Layer_2_1_">
		<rect y="-1" class="st21" width="306" height="211"/>
		<path class="st22" d="M19,138.8c0-0.1-0.1-0.1-0.1-0.2C1,64.9,46.3-9.3,120-27.1c28.7-7,58.9-4.5,86.1,7.1
			c0.2,0.1,0.3,0.4,0.2,0.6c-0.1,0.2-0.4,0.3-0.6,0.2C157.8-39.6,103.5-31.3,63.8,2.5C24.5,36,7.6,88.1,19.7,138.4
			c0.1,0.2-0.1,0.5-0.3,0.5C19.2,139,19.1,138.9,19,138.8z"/>
		<path class="st22" d="M99,232.7c-0.2-0.2-0.1-0.5,0.1-0.6c0.1-0.1,0.3-0.1,0.4-0.1c47.7,20,101.8,11.6,141.2-22
			c40-34.1,57-86.4,44.3-136.6c-0.1-0.2,0.1-0.5,0.3-0.5c0.2-0.1,0.5,0.1,0.5,0.3c6.1,24.4,5.4,50-2.2,74
			c-7.9,24.7-22.5,46.7-42.4,63.5c-39.4,33.6-94.4,42.1-142.1,22.1C99.1,232.8,99,232.8,99,232.7z"/>
		<path class="st23" d="M295.7,63.7c0.2-0.2,0.5-0.1,0.6,0s0.1,0.5,0,0.6l0,0L89.5,240.6c-0.2,0.2-0.5,0.1-0.6-0.1l0,0
			c-0.2-0.2-0.1-0.5,0.1-0.6l0,0"/>
		<path class="st22" d="M9.7,147.5c-0.2-0.2-0.1-0.5,0.1-0.6l0,0L216.6-29.3c0.2-0.2,0.5-0.1,0.6,0c0.2,0.2,0.1,0.5-0.1,0.6
			L10.3,147.6C10.1,147.7,9.8,147.7,9.7,147.5L9.7,147.5z"/>
		<path class="st22" d="M89.5,240.6c-0.2,0.2-0.5,0.1-0.6-0.1l0,0c-0.2-0.2-0.1-0.5,0.1-0.6l0,0"/>
		<path class="st22" d="M295.7,63.7c0.2-0.2,0.5-0.1,0.6,0s0.1,0.5,0,0.6l0,0"/>
		<path class="st6" d="M251.4,41.6h-80.1v-0.4c0-0.7-0.6-1.2-1.2-1.2l0,0h-33.8c-0.7,0-1.2,0.5-1.2,1.2v0.4H54.7
			c-3,0-5.4,2.4-5.4,5.4v109.6c0,3,2.4,5.4,5.4,5.4h196.7c3,0,5.4-2.4,5.4-5.4V47C256.8,44,254.4,41.6,251.4,41.6z"/>
		<path class="st24" d="M59,53.2c-0.3,0-0.5,0.2-0.5,0.5v104c0,0.3,0.2,0.5,0.5,0.5h188.1c0.3,0,0.5-0.2,0.5-0.5v-104
			c0-0.3-0.2-0.5-0.5-0.5H59z"/>
		<circle class="st24" cx="152.9" cy="46.2" r="2"/>
		<path class="st6" d="M260.4,154.7h-18.8v-1.9c0-0.1-0.1-0.2-0.3-0.2h-6.5c-0.1,0-0.3,0.1-0.3,0.2v1.9h-4v-1.9
			c0-0.1-0.1-0.2-0.3-0.2h-6.5c-0.1,0-0.3,0.1-0.3,0.2v1.9h-4v-1.9c0-0.1-0.1-0.2-0.3-0.2h-6.5c-0.1,0-0.3,0.1-0.3,0.2v1.9h-4v-1.9
			c0-0.1-0.1-0.2-0.3-0.2h-6.5c-0.1,0-0.3,0.1-0.3,0.2v1.9h-4v-1.9c0-0.1-0.1-0.2-0.3-0.2h-6.5c-0.1,0-0.3,0.1-0.3,0.2v1.9h-4v-1.9
			c0-0.1-0.1-0.2-0.3-0.2h-6.5c-0.1,0-0.3,0.1-0.3,0.2v1.9h-4v-1.9c0-0.1-0.1-0.2-0.3-0.2h-50.5c-0.2,0-0.3,0.1-0.3,0.2v1.9h-4v-1.9
			c0-0.1-0.1-0.2-0.3-0.2h-6.5c-0.2,0-0.3,0.1-0.3,0.2v1.9h-4v-1.9c0-0.1-0.1-0.2-0.3-0.2h-6.5c-0.2,0-0.3,0.1-0.3,0.2v1.9h-4v-1.9
			c0-0.1-0.1-0.2-0.3-0.2h-6.5c-0.2,0-0.3,0.1-0.3,0.2v1.9h-4v-1.9c0-0.1-0.1-0.2-0.3-0.2h-6.5c-0.2,0-0.3,0.1-0.3,0.2v1.9h-4v-1.9
			c0-0.1-0.1-0.2-0.3-0.2h-6.5c-0.2,0-0.3,0.1-0.3,0.2v1.9h-4v-1.9c0-0.1-0.1-0.2-0.3-0.2h-6.5c-0.2,0-0.3,0.1-0.3,0.2v1.9H45.6
			c-3.6,0-6.5,2.1-6.5,4.6v2.1c0,2.6,2.9,4.6,6.5,4.6h214.8c3.6,0,6.5-2.1,6.5-4.6v-2.1C266.9,156.8,264,154.7,260.4,154.7z"/>
		<path class="st1" d="M131.1,96.9H75.5c-0.2,0-0.4-0.2-0.4-0.4s0.2-0.4,0.4-0.4l0,0h55.6c0.2,0,0.4,0.2,0.4,0.4
			S131.4,96.9,131.1,96.9z"/>
		<path class="st1" d="M131.1,106.5H75.5c-0.2,0-0.4-0.2-0.4-0.4s0.2-0.4,0.4-0.4l0,0h55.6c0.2,0,0.4,0.2,0.4,0.4
			S131.4,106.5,131.1,106.5z"/>
		<path class="st1" d="M131.1,116.2H75.5c-0.2,0-0.4-0.2-0.4-0.4c0-0.2,0.2-0.4,0.4-0.4l0,0h55.6c0.2,0,0.4,0.2,0.4,0.4
			C131.6,116,131.4,116.2,131.1,116.2L131.1,116.2z"/>
		<path class="st6" d="M156.7,71.7h68.7c0.7,0,1.3,0.6,1.3,1.3v66.1c0,0.7-0.6,1.3-1.3,1.3h-68.7c-0.7,0-1.3-0.6-1.3-1.3V73
			C155.4,72.3,156,71.7,156.7,71.7z"/>
		<path class="st24" d="M169.7,108.1c0.6-9.7,8.9-17.1,18.6-16.6c7.5,0.4,13.9,5.6,16,12.9c0.2,0,0.4,0,0.6,0c0.7,0,1.5,0.1,2.2,0.4
			c8.8,2.9,6.4,15.9-2.8,15.9h-22.6c-6.6,0-11.9-5.3-11.9-11.9c0-0.2,0-0.3,0-0.4C169.7,108.3,169.7,108.2,169.7,108.1z"/>
		<polygon class="st6" points="190.3,107.8 190.3,100.6 186.5,100.6 186.5,107.8 183.4,107.8 185.9,112.2 188.4,116.5 190.9,112.2 
			193.4,107.8 		"/>
		<rect class="st25" width="306" height="211"/>
	</g>
	<g class="st26">
		
			<linearGradient id="SVGID_1_" gradientUnits="userSpaceOnUse" x1="280.5" y1="-141.87" x2="280.5" y2="108.25" gradientTransform="matrix(1 0 0 -1 -167 120.19)">
			<stop  offset="0" style="stop-color:#808080;stop-opacity:0.25"/>
			<stop  offset="0.54" style="stop-color:#808080;stop-opacity:0.12"/>
			<stop  offset="1" style="stop-color:#808080;stop-opacity:0.1"/>
		</linearGradient>
		<path class="st27" d="M113.5,11.9L16.4,71.7c0,0,0,123.2,97.1,190.4c97.1-67.2,97.1-190.4,97.1-190.4L113.5,11.9z"/>
	</g>
	<path class="st28" d="M115.1,19l-1.6,1v234l1.6,1.1c91.6-63.4,91.6-179.7,91.6-179.7L115.1,19z"/>
	<path class="st4" d="M113.5,32.6l-81,49.9c0,0,0,102.8,81,158.9c81-56.1,81-158.9,81-158.9L113.5,32.6z"/>
	<path class="st29" d="M113.5,33v208.8c81-56.1,81-158.9,81-158.9L113.5,33z"/>
</g>
<g id="docs" class="st0">
	<circle class="st30" cx="160.2" cy="118.6" r="66.1"/>
	<path class="st31" d="M248.3,142.8h-48.2c-3.3-19-3.3-38.4,0-57.4h48.2C242.9,104.1,242.9,124,248.3,142.8z"/>
	<path class="st6" d="M237.7,100.9h-29.3c-0.5,0-0.9-0.7-0.9-1.5s0.4-1.5,0.9-1.5h29.3c0.5,0,0.9,0.7,0.9,1.5
		S238.2,100.9,237.7,100.9z"/>
	<path class="st6" d="M237.7,114.6h-29.3c-0.5,0-0.9-0.7-0.9-1.5s0.4-1.5,0.9-1.5h29.3c0.5,0,0.9,0.7,0.9,1.5
		S238.2,114.6,237.7,114.6z"/>
	<path class="st4" d="M98.7,84.5h62.1c4.2-24.5,4.2-49.5,0-74H98.7C105.6,34.7,105.6,60.3,98.7,84.5z"/>
	<path class="st6" d="M150.9,32h-37.8c-0.7,0-1.2-0.8-1.2-1.9c0-1,0.5-1.9,1.2-1.9h37.8c0.7,0,1.2,0.8,1.2,1.9
		C152.1,31.2,151.6,32,150.9,32z"/>
	<path class="st6" d="M150.9,49.7h-37.8c-0.7,0-1.2-0.8-1.2-1.9c0-1,0.5-1.9,1.2-1.9h37.8c0.7,0,1.2,0.8,1.2,1.9
		C152.1,48.8,151.6,49.7,150.9,49.7z"/>
	<path class="st6" d="M150.9,67.3h-37.8c-0.7,0-1.2-0.8-1.2-1.9c0-1,0.5-1.9,1.2-1.9h37.8c0.7,0,1.2,0.8,1.2,1.9
		C152.1,66.4,151.6,67.3,150.9,67.3z"/>
	<path class="st4" d="M57.7,199.5h62.1c4.2-24.5,4.2-49.5,0-74H57.7C64.7,149.7,64.7,175.3,57.7,199.5z"/>
	<path class="st6" d="M109.9,147.1H72.2c-0.7,0-1.2-0.8-1.2-1.9s0.5-1.9,1.2-1.9h37.8c0.7,0,1.2,0.8,1.2,1.9
		S110.6,147.1,109.9,147.1z"/>
	<path class="st6" d="M109.9,164.7H72.2c-0.7,0-1.2-0.8-1.2-1.9s0.5-1.9,1.2-1.9h37.8c0.7,0,1.2,0.8,1.2,1.9
		S110.6,164.7,109.9,164.7z"/>
</g>
<g id="Layer_17">
	<rect x="-30.4" y="-31.6" class="st32" width="351.3" height="241.6"/>
	<path class="st33" d="M48.6,42.8c-0.7-2.1-9.7-9.3-4.2-10.5l4.5,6l20.7-20.7l2.1,2.1L48.6,42.8z"/>
	<path class="st33" d="M48.6,113.1c-0.7-2.1-9.7-9.3-4.2-10.5l4.5,6l20.7-20.7l2.1,2.1L48.6,113.1z"/>
	<path class="st33" d="M48.6,184.4c-0.7-2.1-9.7-9.3-4.2-10.5l4.5,6l20.7-20.7l2.1,2.1L48.6,184.4z"/>
	<circle class="st34" cx="111.2" cy="34.2" r="6.4"/>
	<rect x="135.2" y="33.6" class="st34" width="102.8" height="1.3"/>
	<circle class="st34" cx="111.2" cy="104.5" r="6.4"/>
	<rect x="135.2" y="103.9" class="st34" width="102.8" height="1.3"/>
	<circle class="st34" cx="111.2" cy="175.9" r="6.4"/>
	<rect x="135.2" y="175.3" class="st34" width="102.8" height="1.3"/>
	<polygon class="st34" points="64.7,194 32.8,194 32.8,161.4 54.5,161.4 54.5,162.7 34.1,162.7 34.1,192.7 63.4,192.7 63.4,178 
		64.7,178 	"/>
	<polygon class="st34" points="64.7,122.5 32.8,122.5 32.8,89.9 54.5,89.9 54.5,91.2 34.1,91.2 34.1,121.2 63.4,121.2 63.4,106.5 
		64.7,106.5 	"/>
	<polygon class="st34" points="64.7,49.7 32.8,49.7 32.8,17.1 54.5,17.1 54.5,18.4 34.1,18.4 34.1,48.4 63.4,48.4 63.4,33.7 
		64.7,33.7 	"/>
</g>
</svg>
