<svg id="process" xmlns="http://www.w3.org/2000/svg" viewBox="0 0 316.51 210"><defs><style>.cls-1{fill:#007dba;}.cls-2{fill:#d0cde1;}.cls-3,.cls-4{fill:#fff;}.cls-4{opacity:0.54;}</style></defs><title>process-abstract</title><rect class="cls-1" x="0.2" width="308.67" height="210"/><path class="cls-2" d="M195.72,128.52H118V90.7h77.71Zm-76.67-1h75.63V91.74H119.05Z" transform="translate(2.87)"/><polygon class="cls-3" points="205.9 33.79 232.84 45.7 205.9 57.1 205.9 33.79"/><circle class="cls-3" cx="142.12" cy="109.61" r="5.7"/><circle class="cls-3" cx="159.74" cy="109.61" r="5.7"/><circle class="cls-3" cx="177.35" cy="109.61" r="5.7"/><path class="cls-4" d="M98,53.71l-5.28,6.75a104.16,104.16,0,0,0-30-28.79,97.63,97.63,0,0,0-31.41-12.6C12.07,15-2.72,17.75-2.87,17.78l.35,1.85c.15,0,14.57-2.7,33.38,1.29,17,3.62,41.17,13.61,60.2,40.54l-8.33,1.8c5.24,1.58,11.66,5.42,16.2,8.91C97.76,66.56,97.11,59.12,98,53.71Z" transform="translate(2.87)"/><path class="cls-4" d="M308.7,166.84c-.11.09-11.69,9.2-30.22,14.42-16.74,4.72-42.72,7.09-72.07-7.86l6.54-5.48c-5.38,1-12.85.63-18.49-.34,3.64,4.42,7.69,10.7,9.45,15.89l1.53-8.44a104.28,104.28,0,0,0,40,11.51q3.48.26,7,.25a98.09,98.09,0,0,0,26.71-3.73c18.87-5.33,30.68-14.65,30.8-14.74Z" transform="translate(2.87)"/><path class="cls-4" d="M-1.49,153.89c.11.09,11.69,9.2,30.22,14.42,16.75,4.72,42.72,7.09,72.07-7.86L94.26,155c5.38,1,12.85.63,18.49-.34-3.64,4.42-7.69,10.7-9.45,15.89l-1.53-8.44a104.28,104.28,0,0,1-40,11.51q-3.48.25-7,.25a98,98,0,0,1-26.7-3.73C9.26,164.78-2.55,155.46-2.67,155.37Z" transform="translate(2.87)"/><path class="cls-3" d="M264.67,33.29a6.22,6.22,0,1,1,6.22,6.21A6.21,6.21,0,0,1,264.67,33.29Zm1,0a5.18,5.18,0,1,0,5.18-5.18A5.18,5.18,0,0,0,265.71,33.29Z" transform="translate(2.87)"/><path class="cls-3" d="M34.6,81.69l-9.15-9.81,9.81-9.15,9.15,9.81Zm-7.69-9.76,7.74,8.3L43,72.48l-7.74-8.3Z" transform="translate(2.87)"/><rect class="cls-3" x="267.76" y="123.09" width="48.75" height="4.45"/><rect class="cls-3" x="267.76" y="135.52" width="48.75" height="4.45"/><rect class="cls-3" x="267.76" y="147.96" width="48.75" height="4.45"/></svg>