<?xml version="1.0" encoding="utf-8"?>
<!-- Generator: Adobe Illustrator 22.0.1, SVG Export Plug-In . SVG Version: 6.00 Build 0)  -->
<svg version="1.1" id="Layer_1" xmlns="http://www.w3.org/2000/svg" xmlns:xlink="http://www.w3.org/1999/xlink" x="0px" y="0px"
	 viewBox="0 0 37.1 37.1" style="enable-background:new 0 0 37.1 37.1;" xml:space="preserve">
<style type="text/css">
	.st0{display:none;}
	
		.st1{display:inline;fill:none;stroke:#C3D1D6;stroke-width:1.25;stroke-linecap:round;stroke-linejoin:round;stroke-miterlimit:10;}
	.st2{fill:#C3D1D6;}
</style>
<g class="st0">
	<path class="st1" d="M-155.5-196.4c-0.6,0-1.2,0.1-1.8,0.3c0.3-1.3-0.1-2.7-1.3-3.6c-0.9-0.7-2-0.9-3.1-0.6
		c-0.9-3.2-3.8-5.6-7.3-5.6c-4.1,0-7.5,3.4-7.5,7.5c0,0.7,0.1,1.4,0.3,2.1c-0.4-0.1-0.9-0.2-1.4-0.2c-3.1,0-5.6,2.5-5.6,5.6
		s2.5,5.6,5.6,5.6h21.9c3.1,0,5.6-2.5,5.6-5.6C-149.9-193.8-152.4-196.4-155.5-196.4L-155.5-196.4z"/>
</g>
<g class="st0">
	<path class="st1" d="M26.5,14.4v-1.8c0-4.4-3.6-7.9-7.9-7.9c-4.4,0-7.9,3.6-7.9,7.9v1.8"/>
	<rect x="5.1" y="14.4" class="st1" width="27" height="18"/>
	<path class="st1" d="M21.7,21.6c0-1.7-1.4-3.2-3.2-3.2c-1.7,0-3.2,1.4-3.2,3.2c0,1.4,0.9,2.5,2.1,3v3c0,0.6,0.5,1.1,1.1,1.1
		s1.1-0.5,1.1-1.1v-3.1C20.9,24.1,21.7,23,21.7,21.6L21.7,21.6z"/>
</g>
<g class="st0">
	<circle class="st1" cx="-176.4" cy="-162.6" r="5.9"/>
	<circle class="st1" cx="-160.6" cy="-170.9" r="4.4"/>
	<circle class="st1" cx="-157.5" cy="-152.4" r="6.7"/>
	<line class="st1" x1="-171.2" y1="-165.4" x2="-164.5" y2="-168.8"/>
	<line class="st1" x1="-163.1" y1="-156" x2="-171.1" y2="-160"/>
</g>
<path class="st2" d="M23.4,14.3c-0.1-0.1-0.2-0.1-0.3-0.1c-0.1,0-0.2,0-0.3,0.1l-6,6l-2.7-2.7c-0.1-0.1-0.2-0.1-0.3-0.1
	c-0.1,0-0.2,0-0.3,0.1l-0.6,0.6c-0.2,0.2-0.2,0.5,0,0.6l3.6,3.6c0.1,0.1,0.2,0.1,0.3,0.1s0.2,0,0.3-0.1l6.9-6.9
	c0.2-0.2,0.2-0.5,0-0.6L23.4,14.3L23.4,14.3z M32.6,18.4c0-2-1.1-3.8-2.8-4.7c0.5-1.9,0-3.9-1.4-5.3S25,6.4,23.2,6.9
	c-1-1.7-2.8-2.8-4.7-2.8s-3.8,1.1-4.7,2.8c-1.9-0.5-3.9,0-5.3,1.4S6.5,11.8,7,13.6c-1.7,1-2.8,2.8-2.8,4.7s1.1,3.8,2.8,4.7
	C6.5,25,7,27,8.4,28.4c1.5,1.5,3.5,1.9,5.3,1.4c1,1.7,2.8,2.8,4.7,2.8s3.8-1.1,4.7-2.8c1.8,0.5,3.9,0,5.3-1.4
	c1.4-1.4,1.9-3.4,1.4-5.3C31.5,22.2,32.6,20.3,32.6,18.4z M27.6,22.2c0.3,0.7,1.6,3-0.4,5c-1.6,1.6-3.2,1.2-5,0.4
	c-0.3,0.7-1,3.3-3.8,3.3c-2.9,0-3.6-2.7-3.8-3.3c-1.8,0.8-3.4,1.2-5-0.4c-2-2-0.6-4.5-0.4-5c-0.7-0.3-3.3-1-3.3-3.8
	c0-2.9,2.7-3.6,3.3-3.8c-0.3-0.7-1.6-3,0.4-5c2-2,4.5-0.6,5-0.4c0.3-0.7,1-3.3,3.8-3.3c2.9,0,3.6,2.7,3.8,3.3c0.7-0.3,3-1.6,5,0.4
	c2,2,0.6,4.5,0.4,5c0.7,0.3,3.3,1,3.3,3.8C30.8,21.3,28.1,22,27.6,22.2z"/>
</svg>
